%FSLAX25Y25*%
%MOIN*%
G70*
G01*
G75*
G04 Layer_Color=8388736*
%ADD10R,0.01969X0.05906*%
%ADD11R,0.05906X0.01969*%
G04:AMPARAMS|DCode=12|XSize=59.06mil|YSize=35.43mil|CornerRadius=0mil|HoleSize=0mil|Usage=FLASHONLY|Rotation=120.000|XOffset=0mil|YOffset=0mil|HoleType=Round|Shape=Rectangle|*
%AMROTATEDRECTD12*
4,1,4,0.03011,-0.01671,-0.00058,-0.03443,-0.03011,0.01671,0.00058,0.03443,0.03011,-0.01671,0.0*
%
%ADD12ROTATEDRECTD12*%

%ADD13R,0.05906X0.03543*%
G04:AMPARAMS|DCode=14|XSize=59.06mil|YSize=35.43mil|CornerRadius=0mil|HoleSize=0mil|Usage=FLASHONLY|Rotation=240.000|XOffset=0mil|YOffset=0mil|HoleType=Round|Shape=Rectangle|*
%AMROTATEDRECTD14*
4,1,4,-0.00058,0.03443,0.03011,0.01671,0.00058,-0.03443,-0.03011,-0.01671,-0.00058,0.03443,0.0*
%
%ADD14ROTATEDRECTD14*%

%ADD15R,0.03543X0.03150*%
G04:AMPARAMS|DCode=16|XSize=35.43mil|YSize=31.5mil|CornerRadius=0mil|HoleSize=0mil|Usage=FLASHONLY|Rotation=300.000|XOffset=0mil|YOffset=0mil|HoleType=Round|Shape=Rectangle|*
%AMROTATEDRECTD16*
4,1,4,-0.02250,0.00747,0.00478,0.02322,0.02250,-0.00747,-0.00478,-0.02322,-0.02250,0.00747,0.0*
%
%ADD16ROTATEDRECTD16*%

G04:AMPARAMS|DCode=17|XSize=35.43mil|YSize=31.5mil|CornerRadius=0mil|HoleSize=0mil|Usage=FLASHONLY|Rotation=60.000|XOffset=0mil|YOffset=0mil|HoleType=Round|Shape=Rectangle|*
%AMROTATEDRECTD17*
4,1,4,0.00478,-0.02322,-0.02250,-0.00747,-0.00478,0.02322,0.02250,0.00747,0.00478,-0.02322,0.0*
%
%ADD17ROTATEDRECTD17*%

%ADD18R,0.03150X0.03543*%
%ADD19C,0.01181*%
%ADD20C,0.01000*%
%ADD21C,0.03937*%
%ADD22C,0.02756*%
%ADD23C,0.01969*%
%ADD24C,0.11811*%
%ADD25C,0.07874*%
%ADD26C,0.06000*%
%ADD27C,0.07087*%
%ADD28C,0.05512*%
%ADD29C,0.12795*%
%ADD30C,0.15748*%
%ADD31C,0.17716*%
%ADD32C,0.11221*%
%ADD33C,0.05000*%
%ADD34R,0.09843X0.06299*%
%ADD35R,0.24803X0.22441*%
%ADD36C,0.01575*%
%ADD37C,0.00787*%
%ADD38R,0.02769X0.06706*%
%ADD39R,0.06706X0.02769*%
G04:AMPARAMS|DCode=40|XSize=67.06mil|YSize=43.43mil|CornerRadius=0mil|HoleSize=0mil|Usage=FLASHONLY|Rotation=120.000|XOffset=0mil|YOffset=0mil|HoleType=Round|Shape=Rectangle|*
%AMROTATEDRECTD40*
4,1,4,0.03557,-0.01818,-0.00204,-0.03989,-0.03557,0.01818,0.00204,0.03989,0.03557,-0.01818,0.0*
%
%ADD40ROTATEDRECTD40*%

%ADD41R,0.06706X0.04343*%
G04:AMPARAMS|DCode=42|XSize=67.06mil|YSize=43.43mil|CornerRadius=0mil|HoleSize=0mil|Usage=FLASHONLY|Rotation=240.000|XOffset=0mil|YOffset=0mil|HoleType=Round|Shape=Rectangle|*
%AMROTATEDRECTD42*
4,1,4,-0.00204,0.03989,0.03557,0.01818,0.00204,-0.03989,-0.03557,-0.01818,-0.00204,0.03989,0.0*
%
%ADD42ROTATEDRECTD42*%

%ADD43R,0.04343X0.03950*%
G04:AMPARAMS|DCode=44|XSize=43.43mil|YSize=39.5mil|CornerRadius=0mil|HoleSize=0mil|Usage=FLASHONLY|Rotation=300.000|XOffset=0mil|YOffset=0mil|HoleType=Round|Shape=Rectangle|*
%AMROTATEDRECTD44*
4,1,4,-0.02796,0.00893,0.00624,0.02868,0.02796,-0.00893,-0.00624,-0.02868,-0.02796,0.00893,0.0*
%
%ADD44ROTATEDRECTD44*%

G04:AMPARAMS|DCode=45|XSize=43.43mil|YSize=39.5mil|CornerRadius=0mil|HoleSize=0mil|Usage=FLASHONLY|Rotation=60.000|XOffset=0mil|YOffset=0mil|HoleType=Round|Shape=Rectangle|*
%AMROTATEDRECTD45*
4,1,4,0.00624,-0.02868,-0.02796,-0.00893,-0.00624,0.02868,0.02796,0.00893,0.00624,-0.02868,0.0*
%
%ADD45ROTATEDRECTD45*%

%ADD46R,0.03950X0.04343*%
%ADD47C,0.12611*%
%ADD48C,0.08674*%
%ADD49C,0.06800*%
%ADD50C,0.07887*%
%ADD51C,0.06312*%
%ADD52C,0.13595*%
%ADD53C,0.16548*%
%ADD54C,0.18517*%
%ADD55C,0.12020*%
%ADD56C,0.05800*%
D38*
X-190256Y27461D02*
D03*
X-187106D02*
D03*
X-183957D02*
D03*
X-180807D02*
D03*
X-177657D02*
D03*
X-174508D02*
D03*
X-171358D02*
D03*
X-168209D02*
D03*
X-165059D02*
D03*
X-193406D02*
D03*
X-161909D02*
D03*
Y-19390D02*
D03*
X-193406D02*
D03*
X-165059D02*
D03*
X-168209D02*
D03*
X-171358D02*
D03*
X-174508D02*
D03*
X-177657D02*
D03*
X-180807D02*
D03*
X-183957D02*
D03*
X-187106D02*
D03*
X-190256D02*
D03*
D39*
X-154232Y19783D02*
D03*
Y16634D02*
D03*
Y13484D02*
D03*
Y10335D02*
D03*
Y7185D02*
D03*
Y4035D02*
D03*
Y886D02*
D03*
Y-2264D02*
D03*
Y-5413D02*
D03*
Y-8563D02*
D03*
Y-11713D02*
D03*
X-201083D02*
D03*
Y-8563D02*
D03*
Y-5413D02*
D03*
Y-2264D02*
D03*
Y886D02*
D03*
Y4035D02*
D03*
Y7185D02*
D03*
Y10335D02*
D03*
Y13484D02*
D03*
Y16634D02*
D03*
Y19783D02*
D03*
D40*
X-42103Y301464D02*
D03*
X-30852Y307960D02*
D03*
X-21206Y291253D02*
D03*
X-32458Y284757D02*
D03*
X-68868Y286011D02*
D03*
X-57617Y292507D02*
D03*
X-47971Y275800D02*
D03*
X-59223Y269304D02*
D03*
X-95633Y270558D02*
D03*
X-84382Y277054D02*
D03*
X-74736Y260347D02*
D03*
X-85988Y253851D02*
D03*
X-122398Y255105D02*
D03*
X-111147Y261601D02*
D03*
X-101501Y244895D02*
D03*
X-112752Y238399D02*
D03*
X-149163Y239653D02*
D03*
X-137912Y246149D02*
D03*
X-128266Y229442D02*
D03*
X-139517Y222946D02*
D03*
X-175928Y224200D02*
D03*
X-164677Y230696D02*
D03*
X-155031Y213989D02*
D03*
X-166282Y207493D02*
D03*
X-202693Y208747D02*
D03*
X-191442Y215243D02*
D03*
X-181796Y198536D02*
D03*
X-193047Y192040D02*
D03*
X-229458Y193294D02*
D03*
X-218207Y199790D02*
D03*
X-208561Y183084D02*
D03*
X-219812Y176587D02*
D03*
X-256223Y177842D02*
D03*
X-244971Y184338D02*
D03*
X-235326Y167631D02*
D03*
X-246577Y161135D02*
D03*
X-282988Y162389D02*
D03*
X-271737Y168885D02*
D03*
X-262091Y152178D02*
D03*
X-273342Y145682D02*
D03*
X41574Y-301231D02*
D03*
X30323Y-307727D02*
D03*
X20677Y-291020D02*
D03*
X31929Y-284524D02*
D03*
X68339Y-285778D02*
D03*
X57088Y-292274D02*
D03*
X47442Y-275568D02*
D03*
X58694Y-269072D02*
D03*
X95104Y-270326D02*
D03*
X83853Y-276822D02*
D03*
X74207Y-260115D02*
D03*
X85459Y-253619D02*
D03*
X121869Y-254873D02*
D03*
X110618Y-261369D02*
D03*
X100972Y-244662D02*
D03*
X112224Y-238166D02*
D03*
X148634Y-239420D02*
D03*
X137383Y-245916D02*
D03*
X127737Y-229209D02*
D03*
X138988Y-222713D02*
D03*
X175399Y-223968D02*
D03*
X164148Y-230464D02*
D03*
X154502Y-213757D02*
D03*
X165753Y-207261D02*
D03*
X202164Y-208515D02*
D03*
X190913Y-215011D02*
D03*
X181267Y-198304D02*
D03*
X192518Y-191808D02*
D03*
X228929Y-193062D02*
D03*
X217678Y-199558D02*
D03*
X208032Y-182851D02*
D03*
X219283Y-176355D02*
D03*
X255709Y-177601D02*
D03*
X244457Y-184097D02*
D03*
X234811Y-167390D02*
D03*
X246063Y-160894D02*
D03*
X282397Y-162192D02*
D03*
X271146Y-168688D02*
D03*
X261500Y-151981D02*
D03*
X272752Y-145485D02*
D03*
D41*
X-282382Y114075D02*
D03*
Y127067D02*
D03*
X-263090D02*
D03*
Y114075D02*
D03*
X-282382Y83169D02*
D03*
Y96161D02*
D03*
X-263090D02*
D03*
Y83169D02*
D03*
X-282382Y52264D02*
D03*
Y65256D02*
D03*
X-263090D02*
D03*
Y52264D02*
D03*
X-282382Y21358D02*
D03*
Y34350D02*
D03*
X-263090D02*
D03*
Y21358D02*
D03*
X-282382Y-9547D02*
D03*
Y3445D02*
D03*
X-263090D02*
D03*
Y-9547D02*
D03*
X-282382Y-40453D02*
D03*
Y-27461D02*
D03*
X-263090D02*
D03*
Y-40453D02*
D03*
X-282382Y-71358D02*
D03*
Y-58366D02*
D03*
X-263090D02*
D03*
Y-71358D02*
D03*
X-282382Y-102264D02*
D03*
Y-89272D02*
D03*
X-263090D02*
D03*
Y-102264D02*
D03*
X-282382Y-133169D02*
D03*
Y-120177D02*
D03*
X-263090D02*
D03*
Y-133169D02*
D03*
X-282382Y-164075D02*
D03*
Y-151083D02*
D03*
X-263090D02*
D03*
Y-164075D02*
D03*
X281496Y-114764D02*
D03*
Y-127756D02*
D03*
X262205D02*
D03*
Y-114764D02*
D03*
X281496Y-83858D02*
D03*
Y-96850D02*
D03*
X262205D02*
D03*
Y-83858D02*
D03*
X281496Y-52953D02*
D03*
Y-65945D02*
D03*
X262205D02*
D03*
Y-52953D02*
D03*
X281496Y-22047D02*
D03*
Y-35039D02*
D03*
X262205D02*
D03*
Y-22047D02*
D03*
X281496Y8858D02*
D03*
Y-4134D02*
D03*
X262205D02*
D03*
Y8858D02*
D03*
X281496Y39764D02*
D03*
Y26772D02*
D03*
X262205D02*
D03*
Y39764D02*
D03*
X281496Y70669D02*
D03*
Y57677D02*
D03*
X262205D02*
D03*
Y70669D02*
D03*
X281496Y101575D02*
D03*
Y88583D02*
D03*
X262205D02*
D03*
Y101575D02*
D03*
X281496Y132480D02*
D03*
Y119488D02*
D03*
X262205D02*
D03*
Y132480D02*
D03*
X281496Y163386D02*
D03*
Y150394D02*
D03*
X262205D02*
D03*
Y163386D02*
D03*
D42*
X-240377Y-187094D02*
D03*
X-251628Y-180597D02*
D03*
X-241983Y-163891D02*
D03*
X-230731Y-170387D02*
D03*
X-213612Y-202546D02*
D03*
X-224864Y-196050D02*
D03*
X-215218Y-179343D02*
D03*
X-203966Y-185839D02*
D03*
X-186847Y-217999D02*
D03*
X-198099Y-211503D02*
D03*
X-188453Y-194796D02*
D03*
X-177201Y-201292D02*
D03*
X-160082Y-233452D02*
D03*
X-171334Y-226956D02*
D03*
X-161688Y-210249D02*
D03*
X-150436Y-216745D02*
D03*
X-133317Y-248905D02*
D03*
X-144569Y-242408D02*
D03*
X-134923Y-225702D02*
D03*
X-123671Y-232198D02*
D03*
X-106552Y-264357D02*
D03*
X-117804Y-257861D02*
D03*
X-108158Y-241155D02*
D03*
X-96907Y-247651D02*
D03*
X-79787Y-279810D02*
D03*
X-91039Y-273314D02*
D03*
X-81393Y-256607D02*
D03*
X-70142Y-263103D02*
D03*
X-53022Y-295263D02*
D03*
X-64274Y-288767D02*
D03*
X-54628Y-272060D02*
D03*
X-43377Y-278556D02*
D03*
X-26257Y-310716D02*
D03*
X-37509Y-304220D02*
D03*
X-27863Y-287513D02*
D03*
X-16612Y-294009D02*
D03*
X508Y-326168D02*
D03*
X-10744Y-319672D02*
D03*
X-1098Y-302965D02*
D03*
X10153Y-309462D02*
D03*
X240177Y186744D02*
D03*
X251428Y180247D02*
D03*
X241782Y163541D02*
D03*
X230531Y170037D02*
D03*
X213326Y202245D02*
D03*
X224578Y195749D02*
D03*
X214932Y179043D02*
D03*
X203681Y185539D02*
D03*
X186561Y217698D02*
D03*
X197813Y211202D02*
D03*
X188167Y194495D02*
D03*
X176916Y200992D02*
D03*
X159882Y233102D02*
D03*
X171133Y226606D02*
D03*
X161487Y209899D02*
D03*
X150236Y216395D02*
D03*
X133202Y248505D02*
D03*
X144453Y242009D02*
D03*
X134808Y225303D02*
D03*
X123556Y231799D02*
D03*
X106352Y264007D02*
D03*
X117603Y257511D02*
D03*
X107957Y240805D02*
D03*
X96706Y247301D02*
D03*
X79553Y279480D02*
D03*
X90804Y272984D02*
D03*
X81159Y256277D02*
D03*
X69907Y262773D02*
D03*
X52702Y294982D02*
D03*
X63954Y288486D02*
D03*
X54308Y271779D02*
D03*
X43057Y278275D02*
D03*
X25957Y310423D02*
D03*
X37209Y303927D02*
D03*
X27563Y287220D02*
D03*
X16312Y293716D02*
D03*
X-803Y325873D02*
D03*
X10449Y319377D02*
D03*
X803Y302670D02*
D03*
X-10449Y309166D02*
D03*
D43*
X-116240Y26870D02*
D03*
X-109153D02*
D03*
X-92323Y26870D02*
D03*
X-99410D02*
D03*
X-173031Y53642D02*
D03*
X-165945D02*
D03*
X-157480D02*
D03*
X-150394D02*
D03*
X-269035Y134055D02*
D03*
X-276122D02*
D03*
X-269035Y103150D02*
D03*
X-276122D02*
D03*
X-269035Y72244D02*
D03*
X-276122D02*
D03*
X-269035Y41339D02*
D03*
X-276122D02*
D03*
X-269035Y10433D02*
D03*
X-276122D02*
D03*
X-269035Y-20472D02*
D03*
X-276122D02*
D03*
X-269035Y-51378D02*
D03*
X-276122D02*
D03*
X-269035Y-82284D02*
D03*
X-276122D02*
D03*
X-269035Y-113189D02*
D03*
X-276122D02*
D03*
X-269035Y-144095D02*
D03*
X-276122D02*
D03*
X268307Y-135020D02*
D03*
X275394D02*
D03*
X268307Y-104114D02*
D03*
X275394D02*
D03*
X268307Y-73209D02*
D03*
X275394D02*
D03*
X268307Y-42303D02*
D03*
X275394D02*
D03*
X268307Y-11398D02*
D03*
X275394D02*
D03*
X268307Y19508D02*
D03*
X275394D02*
D03*
X268307Y50413D02*
D03*
X275394D02*
D03*
X268307Y81319D02*
D03*
X275394D02*
D03*
X268307Y112224D02*
D03*
X275394D02*
D03*
X268307Y143130D02*
D03*
X275394D02*
D03*
X-157480Y42913D02*
D03*
X-150394D02*
D03*
X-172457Y-30400D02*
D03*
X-179543D02*
D03*
D44*
X-18077Y299810D02*
D03*
X-21621Y305947D02*
D03*
X-44842Y284357D02*
D03*
X-48386Y290495D02*
D03*
X-71607Y268905D02*
D03*
X-75151Y275042D02*
D03*
X-98372Y253452D02*
D03*
X-101916Y259589D02*
D03*
X-125137Y237999D02*
D03*
X-128681Y244136D02*
D03*
X-151902Y222546D02*
D03*
X-155446Y228684D02*
D03*
X-178667Y207094D02*
D03*
X-182211Y213231D02*
D03*
X-205432Y191641D02*
D03*
X-208975Y197778D02*
D03*
X-232197Y176188D02*
D03*
X-235740Y182325D02*
D03*
X-258962Y160735D02*
D03*
X-262505Y166873D02*
D03*
X17557Y-299755D02*
D03*
X21100Y-305892D02*
D03*
X44219Y-284252D02*
D03*
X47762Y-290390D02*
D03*
X70984Y-268800D02*
D03*
X74527Y-274937D02*
D03*
X97749Y-253347D02*
D03*
X101292Y-259484D02*
D03*
X124514Y-237894D02*
D03*
X128057Y-244031D02*
D03*
X151279Y-222441D02*
D03*
X154822Y-228578D02*
D03*
X178044Y-206989D02*
D03*
X181587Y-213126D02*
D03*
X204808Y-191536D02*
D03*
X208352Y-197673D02*
D03*
X231777Y-176189D02*
D03*
X235320Y-182326D02*
D03*
X258257Y-160678D02*
D03*
X261800Y-166815D02*
D03*
D45*
X-250990Y-165555D02*
D03*
X-254534Y-171692D02*
D03*
X-224225Y-181008D02*
D03*
X-227768Y-187145D02*
D03*
X-197460Y-196460D02*
D03*
X-201004Y-202598D02*
D03*
X-170695Y-211913D02*
D03*
X-174239Y-218050D02*
D03*
X-143930Y-227366D02*
D03*
X-147474Y-233503D02*
D03*
X-117165Y-242819D02*
D03*
X-120709Y-248956D02*
D03*
X-90400Y-258271D02*
D03*
X-93944Y-264409D02*
D03*
X-63635Y-273724D02*
D03*
X-67179Y-279861D02*
D03*
X-36871Y-289177D02*
D03*
X-40414Y-295314D02*
D03*
X-10106Y-304630D02*
D03*
X-13649Y-310767D02*
D03*
X251632Y165246D02*
D03*
X255175Y171383D02*
D03*
X224867Y180699D02*
D03*
X228410Y186836D02*
D03*
X198017Y196201D02*
D03*
X201560Y202338D02*
D03*
X171252Y211653D02*
D03*
X174795Y217791D02*
D03*
X144401Y227155D02*
D03*
X147945Y233293D02*
D03*
X117551Y242657D02*
D03*
X121095Y248795D02*
D03*
X90786Y258110D02*
D03*
X94330Y264247D02*
D03*
X64004Y273573D02*
D03*
X67548Y279710D02*
D03*
X37239Y289026D02*
D03*
X40783Y295163D02*
D03*
X10676Y304362D02*
D03*
X14219Y310499D02*
D03*
D46*
X-137900Y7043D02*
D03*
Y-43D02*
D03*
X-144000Y7143D02*
D03*
Y57D02*
D03*
X-222342Y-49803D02*
D03*
Y-42717D02*
D03*
X-213400Y6243D02*
D03*
Y-843D02*
D03*
X-246949Y-49803D02*
D03*
Y-42717D02*
D03*
X-226800Y-13243D02*
D03*
Y-6157D02*
D03*
X-226800Y6243D02*
D03*
Y-843D02*
D03*
D47*
X310039Y26575D02*
D03*
Y-26575D02*
D03*
D48*
X305118Y-9843D02*
D03*
Y9843D02*
D03*
X314961D02*
D03*
Y-9843D02*
D03*
Y0D02*
D03*
X-142800Y-33579D02*
D03*
X-132957Y-43421D02*
D03*
X-152643D02*
D03*
X142800Y-33579D02*
D03*
X152643Y-43421D02*
D03*
X132957D02*
D03*
X35819Y-30700D02*
D03*
X25976D02*
D03*
X16134D02*
D03*
X6291D02*
D03*
X-3551D02*
D03*
X-13394D02*
D03*
X-23236D02*
D03*
X-33079D02*
D03*
X-42921D02*
D03*
X-52764D02*
D03*
X-62606D02*
D03*
X-72449D02*
D03*
X-82291D02*
D03*
X-92134D02*
D03*
X-101976D02*
D03*
X-111819D02*
D03*
X-59994Y39400D02*
D03*
X-69836D02*
D03*
X-79679D02*
D03*
X-89521D02*
D03*
X-99364D02*
D03*
X-109206D02*
D03*
X24528D02*
D03*
X14685D02*
D03*
X4843D02*
D03*
X-5000D02*
D03*
X-14842D02*
D03*
X-24685D02*
D03*
D49*
X-239800Y-13046D02*
D03*
Y6246D02*
D03*
X330689Y54134D02*
D03*
Y71850D02*
D03*
Y-71850D02*
D03*
Y-54134D02*
D03*
X-228104Y-36200D02*
D03*
X-241096D02*
D03*
X156181Y37008D02*
D03*
X146181D02*
D03*
D50*
X320905Y49213D02*
D03*
Y76772D02*
D03*
Y-76772D02*
D03*
Y-49213D02*
D03*
D51*
X-296063Y5591D02*
D03*
Y-4409D02*
D03*
X-306063Y20591D02*
D03*
Y10591D02*
D03*
X-296063Y15591D02*
D03*
X-306063Y591D02*
D03*
D52*
X-331102Y-11929D02*
D03*
Y28071D02*
D03*
D53*
X-331496Y-52658D02*
D03*
X-319488Y-33366D02*
D03*
D54*
X-307874Y-52658D02*
D03*
D55*
X-100Y380800D02*
D03*
X329700Y190800D02*
D03*
X-328900Y190400D02*
D03*
Y-190300D02*
D03*
X-300Y-380800D02*
D03*
X330400Y-190600D02*
D03*
D56*
X-179232Y38681D02*
D03*
X-217224Y-161319D02*
D03*
X-242126Y-202264D02*
D03*
X-59547Y307480D02*
D03*
X-35393Y264665D02*
D03*
X-241240Y201772D02*
D03*
X-216929Y161024D02*
D03*
X-296358Y104232D02*
D03*
X-248327D02*
D03*
X248031Y106693D02*
D03*
X295866Y107087D02*
D03*
X239764Y204724D02*
D03*
X214469Y161614D02*
D03*
X58071Y309055D02*
D03*
X33762Y265945D02*
D03*
X240354Y-203346D02*
D03*
X214469Y-161614D02*
D03*
X58661Y-307972D02*
D03*
X33762Y-265945D02*
D03*
X-248327Y-104429D02*
D03*
X-296358D02*
D03*
X296063Y-102362D02*
D03*
X248031Y-101969D02*
D03*
X-59252Y-307283D02*
D03*
X-35393Y-264665D02*
D03*
X-135925Y-6594D02*
D03*
X213878Y16339D02*
D03*
X172244Y-52559D02*
D03*
X-121752Y-42126D02*
D03*
X-221063Y30512D02*
D03*
X-169783Y-37303D02*
D03*
X-10024Y296568D02*
D03*
X-20457Y314973D02*
D03*
X-6489Y281811D02*
D03*
X-142520Y43110D02*
D03*
X-213386Y-8465D02*
D03*
X-187500Y-30413D02*
D03*
X230709Y53347D02*
D03*
X-296358Y-44783D02*
D03*
X-208296Y12008D02*
D03*
X-165847Y47539D02*
D03*
X-227264Y25591D02*
D03*
X-85728Y26870D02*
D03*
X-109252Y9055D02*
D03*
X-165551Y-30315D02*
D03*
X0Y13780D02*
D03*
X-249311Y-30217D02*
D03*
X191142Y-8957D02*
D03*
X180709D02*
D03*
X169980D02*
D03*
X169882Y7677D02*
D03*
X180610D02*
D03*
X191043D02*
D03*
X227658Y-17028D02*
D03*
X217224D02*
D03*
X206496D02*
D03*
X206594Y-33661D02*
D03*
X217323D02*
D03*
X227756D02*
D03*
X-16689Y276011D02*
D03*
X-296457Y-96653D02*
D03*
X-296358Y96457D02*
D03*
X-234350Y205906D02*
D03*
X-66142Y303642D02*
D03*
X65158Y305315D02*
D03*
X233268Y208465D02*
D03*
X295965Y99508D02*
D03*
X296161Y-94980D02*
D03*
X-66535Y-303346D02*
D03*
X-235728Y-206004D02*
D03*
X233760Y-207283D02*
D03*
X65113Y-304042D02*
D03*
M02*
