%FSLAX25Y25*%
%MOIN*%
G70*
G01*
G75*
G04 Layer_Physical_Order=2*
G04 Layer_Color=16711680*
%ADD10R,0.01969X0.05906*%
%ADD11R,0.05906X0.01969*%
G04:AMPARAMS|DCode=12|XSize=59.06mil|YSize=35.43mil|CornerRadius=0mil|HoleSize=0mil|Usage=FLASHONLY|Rotation=120.000|XOffset=0mil|YOffset=0mil|HoleType=Round|Shape=Rectangle|*
%AMROTATEDRECTD12*
4,1,4,0.03011,-0.01671,-0.00058,-0.03443,-0.03011,0.01671,0.00058,0.03443,0.03011,-0.01671,0.0*
%
%ADD12ROTATEDRECTD12*%

%ADD13R,0.05906X0.03543*%
G04:AMPARAMS|DCode=14|XSize=59.06mil|YSize=35.43mil|CornerRadius=0mil|HoleSize=0mil|Usage=FLASHONLY|Rotation=240.000|XOffset=0mil|YOffset=0mil|HoleType=Round|Shape=Rectangle|*
%AMROTATEDRECTD14*
4,1,4,-0.00058,0.03443,0.03011,0.01671,0.00058,-0.03443,-0.03011,-0.01671,-0.00058,0.03443,0.0*
%
%ADD14ROTATEDRECTD14*%

%ADD15R,0.03543X0.03150*%
G04:AMPARAMS|DCode=16|XSize=35.43mil|YSize=31.5mil|CornerRadius=0mil|HoleSize=0mil|Usage=FLASHONLY|Rotation=300.000|XOffset=0mil|YOffset=0mil|HoleType=Round|Shape=Rectangle|*
%AMROTATEDRECTD16*
4,1,4,-0.02250,0.00747,0.00478,0.02322,0.02250,-0.00747,-0.00478,-0.02322,-0.02250,0.00747,0.0*
%
%ADD16ROTATEDRECTD16*%

G04:AMPARAMS|DCode=17|XSize=35.43mil|YSize=31.5mil|CornerRadius=0mil|HoleSize=0mil|Usage=FLASHONLY|Rotation=60.000|XOffset=0mil|YOffset=0mil|HoleType=Round|Shape=Rectangle|*
%AMROTATEDRECTD17*
4,1,4,0.00478,-0.02322,-0.02250,-0.00747,-0.00478,0.02322,0.02250,0.00747,0.00478,-0.02322,0.0*
%
%ADD17ROTATEDRECTD17*%

%ADD18R,0.03150X0.03543*%
%ADD19C,0.01181*%
%ADD20C,0.01000*%
%ADD21C,0.03937*%
%ADD22C,0.02756*%
%ADD23C,0.01969*%
%ADD24C,0.11811*%
%ADD25C,0.07874*%
%ADD26C,0.06000*%
%ADD27C,0.07087*%
%ADD28C,0.05512*%
%ADD29C,0.12795*%
%ADD30C,0.15748*%
%ADD31C,0.17716*%
%ADD32C,0.11221*%
%ADD33C,0.05000*%
%ADD34R,0.09843X0.06299*%
%ADD35R,0.24803X0.22441*%
%ADD36C,0.01575*%
G36*
X327194Y55593D02*
X326589Y54134D01*
X327706Y51438D01*
Y11747D01*
X320074Y4115D01*
X318704Y3658D01*
X317677Y4254D01*
X317721Y5872D01*
X318577Y6227D01*
X320074Y9843D01*
X318577Y13458D01*
X314961Y14956D01*
X313049Y14164D01*
X309670Y17544D01*
X309176Y18038D01*
X310039Y19330D01*
X315162Y21452D01*
X317284Y26575D01*
X315162Y31697D01*
X310039Y33819D01*
X304917Y31697D01*
X302795Y26575D01*
X301503Y25711D01*
X300123Y27091D01*
X298917Y27590D01*
X296850D01*
Y28445D01*
X292126D01*
Y23327D01*
X296850D01*
Y23665D01*
X298425Y23967D01*
X302894Y19498D01*
X302292Y18043D01*
X216730D01*
X216394Y18855D01*
X213878Y19897D01*
X211362Y18855D01*
X210320Y16339D01*
X211362Y13823D01*
X213878Y12780D01*
X216394Y13823D01*
X216730Y14634D01*
X300620D01*
X301337Y13059D01*
X300004Y9843D01*
X301502Y6227D01*
X305118Y4729D01*
X308734Y6227D01*
X309252Y7477D01*
X310827D01*
X311345Y6227D01*
X312595Y5709D01*
Y4134D01*
X311345Y3616D01*
X311083Y2983D01*
X192972D01*
X192658Y4558D01*
X193722Y4998D01*
X194505Y6890D01*
X187581D01*
X188364Y4998D01*
X189428Y4558D01*
X189115Y2983D01*
X182538D01*
X182225Y4558D01*
X183289Y4998D01*
X184072Y6890D01*
X177148D01*
X177931Y4998D01*
X178995Y4558D01*
X178682Y2983D01*
X171810D01*
X171497Y4558D01*
X172561Y4998D01*
X173344Y6890D01*
X166420D01*
X167203Y4998D01*
X168267Y4558D01*
X167954Y2983D01*
X71063D01*
X68954Y2109D01*
X65059Y-1785D01*
X61460Y1814D01*
X59350Y2688D01*
X41491D01*
X21401Y22779D01*
X19291Y23652D01*
X-6638D01*
X-11978Y28991D01*
Y35473D01*
X-11227Y35784D01*
X-10824Y36757D01*
X-9249D01*
X-8779Y35621D01*
X-5787Y34382D01*
Y39400D01*
X-4213D01*
Y34382D01*
X-1221Y35621D01*
X-751Y36757D01*
X824D01*
X1227Y35784D01*
X4843Y34286D01*
X8458Y35784D01*
X8976Y37035D01*
X10551D01*
X11069Y35784D01*
X14685Y34286D01*
X18301Y35784D01*
X18819Y37035D01*
X20394D01*
X20912Y35784D01*
X24528Y34286D01*
X28144Y35784D01*
X29641Y39400D01*
X28144Y43016D01*
X24528Y44514D01*
X20912Y43016D01*
X20394Y41765D01*
X18819D01*
X18301Y43016D01*
X14685Y44514D01*
X11069Y43016D01*
X10551Y41765D01*
X8976D01*
X8458Y43016D01*
X4843Y44514D01*
X1227Y43016D01*
X824Y42043D01*
X-751D01*
X-1221Y43179D01*
X-2135Y43557D01*
Y45276D01*
X-3009Y47385D01*
X-5615Y49991D01*
X-5013Y51446D01*
X218566D01*
X226197Y43815D01*
X227854Y43129D01*
X281017D01*
X291913Y32233D01*
Y30201D01*
X293701D01*
Y32972D01*
X294488D01*
Y33760D01*
X297063D01*
Y35744D01*
X295031D01*
X289102Y41674D01*
X289704Y43129D01*
X294587D01*
X296244Y43815D01*
X309597Y57168D01*
X326142D01*
X327194Y55593D01*
D02*
G37*
G36*
X-184149Y25107D02*
X-184751Y23652D01*
X-199635D01*
X-201744Y22779D01*
X-209423Y15099D01*
X-210812Y14524D01*
X-211854Y12008D01*
X-210812Y9492D01*
X-208296Y8450D01*
X-205780Y9492D01*
X-205205Y10881D01*
X-198399Y17686D01*
X-164771D01*
X-164168Y16231D01*
X-178290Y2109D01*
X-179164Y-0D01*
Y-30906D01*
X-178290Y-33015D01*
X-172875Y-38430D01*
X-172695Y-38864D01*
X-173738Y-40438D01*
X-194516D01*
X-200103Y-34851D01*
X-199501Y-33396D01*
X-189444D01*
X-188287Y-33876D01*
Y-30413D01*
Y-26951D01*
X-189444Y-27430D01*
X-207524D01*
X-213498Y-21457D01*
X-211277Y-19235D01*
X-210403Y-17126D01*
Y-10409D01*
X-209924Y-9252D01*
X-216848D01*
X-216369Y-10409D01*
Y-15890D01*
X-218952Y-18474D01*
X-237641D01*
X-238997Y-17947D01*
X-238933Y-16786D01*
X-237589Y-16229D01*
X-236901Y-15944D01*
X-235701Y-13046D01*
X-236901Y-10147D01*
X-239800Y-8946D01*
X-242699Y-10147D01*
X-243899Y-13046D01*
X-242699Y-15944D01*
X-242011Y-16229D01*
X-240667Y-16786D01*
X-240603Y-17947D01*
X-241959Y-18474D01*
X-306343D01*
X-313060Y-11756D01*
Y-625D01*
X-311353Y1082D01*
X-309816Y392D01*
X-308775Y-2121D01*
X-306063Y-3245D01*
X-303351Y-2121D01*
X-302805Y-803D01*
X-299938D01*
X-299057Y-2378D01*
X-299898Y-4409D01*
X-298775Y-7121D01*
X-296063Y-8245D01*
X-293351Y-7121D01*
X-292228Y-4409D01*
X-293069Y-2378D01*
X-292471Y-923D01*
X-292256Y-735D01*
X-291436Y-395D01*
X-266844Y24197D01*
X-230245D01*
X-229780Y23075D01*
X-227264Y22032D01*
X-224748Y23075D01*
X-223706Y25591D01*
X-224082Y26500D01*
X-222877Y27705D01*
X-221063Y26954D01*
X-218547Y27996D01*
X-217505Y30512D01*
X-218471Y32844D01*
X-217880Y34419D01*
X-193460D01*
X-184149Y25107D01*
D02*
G37*
G36*
X339567Y195866D02*
Y59387D01*
X337992Y58735D01*
X335558Y61169D01*
X333901Y61856D01*
X308626D01*
X306969Y61169D01*
X293616Y47816D01*
X228825D01*
X222311Y54331D01*
X229120Y61141D01*
X288386D01*
X290043Y61827D01*
X311960Y83744D01*
X313992D01*
Y85532D01*
X311221D01*
Y86319D01*
X310433D01*
Y88894D01*
X308449D01*
Y86862D01*
X287415Y65828D01*
X228150D01*
X226492Y65141D01*
X218763Y57412D01*
X-291437D01*
X-293546Y56538D01*
X-318153Y31932D01*
X-319026Y29823D01*
Y610D01*
Y-12992D01*
X-318153Y-15101D01*
X-311797Y-21457D01*
X-315679Y-25339D01*
X-318701Y-24087D01*
Y-33366D01*
Y-42645D01*
X-312696Y-40158D01*
X-310999Y-36060D01*
X-309457Y-35904D01*
X-302708Y-42652D01*
X-303600Y-43988D01*
X-307874Y-42217D01*
X-315257Y-45275D01*
X-318314Y-52658D01*
X-315257Y-60040D01*
X-307874Y-63098D01*
X-300491Y-60040D01*
X-298669Y-55640D01*
X-142194D01*
X-140084Y-54767D01*
X-133590Y-48273D01*
X-132957Y-48535D01*
X-129342Y-47037D01*
X-127844Y-43421D01*
X-128106Y-42788D01*
X-126711Y-41394D01*
X-125310Y-42126D01*
X-124268Y-44642D01*
X-121752Y-45684D01*
X-119236Y-44642D01*
X-118900Y-43830D01*
X43979D01*
X56078Y-55930D01*
X57284Y-56429D01*
X162500D01*
X163705Y-55930D01*
X167231Y-52404D01*
X168867Y-52996D01*
X169728Y-55075D01*
X172244Y-56117D01*
X174760Y-55075D01*
X175802Y-52559D01*
X175466Y-51748D01*
X198049Y-29165D01*
X204188D01*
X204502Y-30740D01*
X203916Y-30983D01*
X203132Y-32874D01*
X210057D01*
X209273Y-30983D01*
X208687Y-30740D01*
X209001Y-29165D01*
X214917D01*
X215230Y-30740D01*
X214644Y-30983D01*
X213861Y-32874D01*
X220785D01*
X220002Y-30983D01*
X219416Y-30740D01*
X219729Y-29165D01*
X225350D01*
X225663Y-30740D01*
X225077Y-30983D01*
X224294Y-32874D01*
X231218D01*
X230435Y-30983D01*
X229849Y-30740D01*
X230162Y-29165D01*
X281085D01*
X308925Y-57005D01*
Y-68504D01*
X308071D01*
Y-73228D01*
X313189D01*
Y-72571D01*
X316420D01*
X317306Y-74146D01*
X316218Y-76772D01*
X317530Y-79940D01*
X316962Y-81515D01*
X312388D01*
X305889Y-75016D01*
X305893Y-73441D01*
X306315D01*
Y-71653D01*
X300772D01*
Y-73441D01*
X301200D01*
Y-75984D01*
X301886Y-77641D01*
X309760Y-85516D01*
X311417Y-86202D01*
X329134D01*
X330791Y-85516D01*
X337992Y-78315D01*
X339567Y-78967D01*
Y-195866D01*
X0Y-391732D01*
X-339567Y-195866D01*
Y-60228D01*
X-337992Y-59572D01*
X-332283Y-61936D01*
Y-52658D01*
X-331496D01*
Y-51870D01*
X-322217D01*
X-324704Y-45866D01*
X-325562Y-45510D01*
X-325869Y-43966D01*
X-323297Y-41394D01*
X-320276Y-42645D01*
Y-34154D01*
X-328767D01*
X-327516Y-37175D01*
X-333605Y-43265D01*
X-333936Y-44063D01*
X-337992Y-45743D01*
X-339567Y-45087D01*
Y-14384D01*
X-337992Y-14071D01*
X-336602Y-17428D01*
X-331102Y-19706D01*
X-325603Y-17428D01*
X-323325Y-11929D01*
X-325603Y-6430D01*
X-331102Y-4152D01*
X-336602Y-6430D01*
X-337992Y-9787D01*
X-339567Y-9474D01*
Y25616D01*
X-337992Y25929D01*
X-336602Y22572D01*
X-331102Y20294D01*
X-325603Y22572D01*
X-323325Y28071D01*
X-325603Y33570D01*
X-331102Y35848D01*
X-336602Y33570D01*
X-337992Y30213D01*
X-339567Y30526D01*
Y195866D01*
X0Y391732D01*
X339567Y195866D01*
D02*
G37*
G36*
X-73197Y44963D02*
X-73421Y43259D01*
X-73615Y43179D01*
X-74085Y42043D01*
X-75660D01*
X-76063Y43016D01*
X-79679Y44514D01*
X-83295Y43016D01*
X-83813Y41765D01*
X-85387D01*
X-85905Y43016D01*
X-89521Y44514D01*
X-93137Y43016D01*
X-93655Y41765D01*
X-95230D01*
X-95748Y43016D01*
X-99364Y44514D01*
X-102980Y43016D01*
X-103498Y41765D01*
X-105072D01*
X-105590Y43016D01*
X-109206Y44514D01*
X-112822Y43016D01*
X-114320Y39400D01*
X-112822Y35784D01*
X-109206Y34286D01*
X-105590Y35784D01*
X-105072Y37035D01*
X-103498D01*
X-102980Y35784D01*
X-99364Y34286D01*
X-95748Y35784D01*
X-95230Y37035D01*
X-93655D01*
X-93137Y35784D01*
X-89521Y34286D01*
X-85905Y35784D01*
X-85387Y37035D01*
X-83813D01*
X-83295Y35784D01*
X-79679Y34286D01*
X-76063Y35784D01*
X-75660Y36757D01*
X-74085D01*
X-73615Y35621D01*
X-70624Y34382D01*
Y39400D01*
X-69049D01*
Y34382D01*
X-66058Y35621D01*
X-65587Y36757D01*
X-64012D01*
X-63610Y35784D01*
X-62977Y35522D01*
Y32336D01*
X-62103Y30227D01*
X-56983Y25107D01*
X-57586Y23652D01*
X-78292D01*
X-82637Y27997D01*
X-83212Y29386D01*
X-85728Y30428D01*
X-88244Y29386D01*
X-89287Y26870D01*
X-88606Y25227D01*
X-89600Y23652D01*
X-137741D01*
X-162755Y48667D01*
X-163254Y49871D01*
X-162663Y51446D01*
X-150547D01*
X-145503Y46402D01*
Y45055D01*
X-145982Y43898D01*
X-139058D01*
X-139537Y45055D01*
Y47638D01*
X-140410Y49747D01*
X-140655Y49991D01*
X-140052Y51446D01*
X-79681D01*
X-73197Y44963D01*
D02*
G37*
G36*
X-197861Y-45531D02*
X-195752Y-46404D01*
X-156751D01*
X-156421Y-47200D01*
X-154249Y-48100D01*
X-154562Y-49674D01*
X-294905D01*
X-295218Y-48100D01*
X-293679Y-47462D01*
X-292896Y-45571D01*
X-296358D01*
Y-43996D01*
X-292896D01*
X-293679Y-42105D01*
X-295624Y-41299D01*
X-306166Y-30757D01*
X-308276Y-29883D01*
X-309560D01*
X-310212Y-28308D01*
X-306343Y-24440D01*
X-259306D01*
X-252795Y-30951D01*
X-251990Y-32895D01*
X-250098Y-33679D01*
Y-30217D01*
X-249311D01*
Y-29429D01*
X-245849D01*
X-246632Y-27538D01*
X-248577Y-26732D01*
X-249414Y-25895D01*
X-248812Y-24440D01*
X-218952D01*
X-197861Y-45531D01*
D02*
G37*
G36*
X-116833Y-29904D02*
X-117163Y-30700D01*
X-116868Y-31410D01*
X-118087Y-32283D01*
X-118193Y-32329D01*
X-120276Y-31466D01*
X-123985D01*
X-126094Y-32340D01*
X-132325Y-38570D01*
X-132957Y-38308D01*
X-136573Y-39805D01*
X-138071Y-43421D01*
X-137809Y-44054D01*
X-143429Y-49674D01*
X-150723D01*
X-151036Y-48100D01*
X-148864Y-47200D01*
X-147625Y-44209D01*
X-152643D01*
Y-42634D01*
X-147625D01*
X-148864Y-39643D01*
X-151833Y-38413D01*
X-152270Y-36623D01*
X-149369Y-33721D01*
X-147646Y-34225D01*
X-146416Y-37195D01*
X-142800Y-38692D01*
X-139184Y-37195D01*
X-137686Y-33579D01*
X-139184Y-29963D01*
X-139495Y-29834D01*
X-139182Y-28259D01*
X-118478D01*
X-116833Y-29904D01*
D02*
G37*
G36*
X-168439Y49871D02*
X-169405Y47539D01*
X-168362Y45023D01*
X-166974Y44448D01*
X-147633Y25107D01*
X-148235Y23652D01*
X-174257D01*
X-190115Y39511D01*
X-192224Y40385D01*
X-282579D01*
X-284688Y39511D01*
X-297779Y26420D01*
X-298652Y24311D01*
Y18353D01*
X-298775Y18303D01*
X-299898Y15591D01*
X-298775Y12879D01*
X-296063Y11755D01*
X-293351Y12879D01*
X-292228Y15591D01*
X-292686Y16698D01*
Y23075D01*
X-281343Y34419D01*
X-224945D01*
X-224191Y32866D01*
X-224770Y31905D01*
X-271142D01*
X-272127Y31497D01*
X-294744Y8880D01*
X-296063Y9426D01*
X-298775Y8303D01*
X-299898Y5591D01*
X-299057Y3559D01*
X-299938Y1984D01*
X-302805D01*
X-303351Y3303D01*
X-305266Y4096D01*
X-305920Y5799D01*
X-305406Y6797D01*
X-303188Y7716D01*
X-302324Y9803D01*
X-306063D01*
Y10591D01*
X-306850D01*
Y14330D01*
X-308938Y13465D01*
X-310020Y10852D01*
X-311605Y9267D01*
X-313060Y9869D01*
Y28587D01*
X-290201Y51446D01*
X-169029D01*
X-168439Y49871D01*
D02*
G37*
G36*
X38147Y-2405D02*
X40256Y-3278D01*
X58115D01*
X62045Y-7208D01*
Y-21167D01*
X59319D01*
Y-29041D01*
X70736D01*
Y-22107D01*
X72961Y-19882D01*
X74508D01*
Y-15157D01*
X69390D01*
Y-15157D01*
X68010Y-14685D01*
Y-7271D01*
X72299Y-2983D01*
X311083D01*
X311345Y-3616D01*
X312595Y-4134D01*
Y-5709D01*
X311345Y-6227D01*
X310827Y-7477D01*
X309252D01*
X308734Y-6227D01*
X305118Y-4729D01*
X301502Y-6227D01*
X300004Y-9843D01*
X301502Y-13458D01*
X305118Y-14956D01*
X305274Y-14892D01*
X306166Y-16227D01*
X298425Y-23968D01*
X296850Y-23524D01*
Y-23524D01*
X292126D01*
Y-26536D01*
X290671Y-27138D01*
X286447Y-22915D01*
X287100Y-21340D01*
X291913D01*
Y-21768D01*
X293701D01*
Y-18996D01*
Y-16224D01*
X291913D01*
Y-16652D01*
X231290D01*
X230336Y-14349D01*
X228445Y-13565D01*
Y-17028D01*
X226870D01*
Y-13565D01*
X224979Y-14349D01*
X224025Y-16652D01*
X220857D01*
X219903Y-14349D01*
X218012Y-13565D01*
Y-17028D01*
X216437D01*
Y-13565D01*
X214546Y-14349D01*
X213592Y-16652D01*
X210129D01*
X209175Y-14349D01*
X207283Y-13565D01*
Y-17028D01*
X205709D01*
Y-13565D01*
X203817Y-14349D01*
X202863Y-16652D01*
X190847D01*
X189189Y-17339D01*
X159086Y-47442D01*
X157887Y-47328D01*
X156988Y-45832D01*
X157660Y-44209D01*
X147625D01*
X147628Y-44217D01*
X144501Y-47344D01*
X138151D01*
X137099Y-45769D01*
X138071Y-43421D01*
X136573Y-39805D01*
X132957Y-38308D01*
X129342Y-39805D01*
X127844Y-43421D01*
X128413Y-44794D01*
X127409Y-46420D01*
X126448Y-46504D01*
X111875Y-31932D01*
X109766Y-31058D01*
X104374D01*
Y-21821D01*
X91760D01*
Y-34041D01*
Y-46261D01*
X104374D01*
Y-37024D01*
X108530D01*
X122952Y-51445D01*
X122299Y-53020D01*
X81615D01*
Y-51487D01*
X76072D01*
Y-53020D01*
X74316D01*
Y-48338D01*
X72981D01*
X70736Y-46093D01*
Y-39159D01*
X59319D01*
Y-40113D01*
X54469D01*
X50141Y-35784D01*
X48031Y-34911D01*
X41241D01*
X40188Y-33336D01*
X41236Y-30807D01*
X39738Y-27191D01*
X39703Y-27177D01*
X39597Y-26921D01*
X38802Y-26592D01*
Y-26173D01*
X37928Y-24064D01*
X37593Y-23729D01*
X38196Y-22274D01*
X45615D01*
X47214Y-23873D01*
Y-28642D01*
X48088Y-30751D01*
X53487Y-36150D01*
X55596Y-37024D01*
X77571D01*
Y-46261D01*
X77571D01*
X77773Y-47836D01*
X77580Y-48125D01*
X76072D01*
Y-49913D01*
X82343D01*
X85994Y-46261D01*
X90185D01*
Y-34041D01*
Y-21821D01*
X86048D01*
X82535Y-18307D01*
X76264D01*
Y-20095D01*
X77577D01*
X77678Y-20246D01*
X77571Y-21821D01*
X77571D01*
Y-31058D01*
X56832D01*
X53180Y-27406D01*
Y-22638D01*
X52306Y-20528D01*
X48960Y-17182D01*
X46850Y-16308D01*
X-112493D01*
X-113095Y-14853D01*
X-107143Y-8901D01*
X-106269Y-6791D01*
Y7111D01*
X-105790Y8268D01*
X-112714D01*
X-112235Y7111D01*
Y-5556D01*
X-122988Y-16308D01*
X-132776D01*
X-132942Y-16059D01*
Y-8539D01*
X-132463Y-7382D01*
X-139387D01*
X-138908Y-8539D01*
Y-14823D01*
X-141267Y-17182D01*
X-147252Y-23167D01*
X-164375Y-40291D01*
X-165994Y-40188D01*
X-166872Y-38864D01*
X-166225Y-37303D01*
X-167227Y-34883D01*
X-166528Y-33468D01*
X-165551Y-33873D01*
X-163035Y-32831D01*
X-161993Y-30315D01*
X-163035Y-27799D01*
X-165551Y-26757D01*
X-166674Y-27222D01*
X-170260Y-23635D01*
Y-2349D01*
X-152966Y14945D01*
X-4780D01*
X-3558Y13780D01*
X-2516Y11264D01*
X0Y10221D01*
X2516Y11264D01*
X3558Y13780D01*
X2592Y16112D01*
X3183Y17686D01*
X18056D01*
X38147Y-2405D01*
D02*
G37*
%LPC*%
G36*
X231218Y-34449D02*
X228543D01*
Y-37124D01*
X230435Y-36340D01*
X231218Y-34449D01*
D02*
G37*
G36*
X226969D02*
X224294D01*
X225077Y-36340D01*
X226969Y-37124D01*
Y-34449D01*
D02*
G37*
G36*
X68575Y-304829D02*
X65900D01*
Y-307504D01*
X67791Y-306721D01*
X68575Y-304829D01*
D02*
G37*
G36*
X-245849Y-31004D02*
X-248524D01*
Y-33679D01*
X-246632Y-32895D01*
X-245849Y-31004D01*
D02*
G37*
G36*
X33762Y-262387D02*
X31246Y-263429D01*
X30204Y-265945D01*
X31246Y-268461D01*
X31961Y-268757D01*
X55141Y-307882D01*
X55103Y-307972D01*
X56145Y-310489D01*
X58661Y-311531D01*
X61177Y-310489D01*
X62091Y-308283D01*
X62907Y-307593D01*
X63607Y-307207D01*
X64325Y-307504D01*
Y-304042D01*
Y-300580D01*
X62434Y-301363D01*
X61450Y-303738D01*
X59869Y-304159D01*
X37283Y-266035D01*
X37321Y-265945D01*
X36279Y-263429D01*
X33762Y-262387D01*
D02*
G37*
G36*
X-184038Y-31201D02*
X-186713D01*
Y-33876D01*
X-184821Y-33092D01*
X-184038Y-31201D01*
D02*
G37*
G36*
X65900Y-300580D02*
Y-303255D01*
X68575D01*
X67791Y-301363D01*
X65900Y-300580D01*
D02*
G37*
G36*
X216535Y-34449D02*
X213861D01*
X214644Y-36340D01*
X216535Y-37124D01*
Y-34449D01*
D02*
G37*
G36*
X210057D02*
X207382D01*
Y-37124D01*
X209273Y-36340D01*
X210057Y-34449D01*
D02*
G37*
G36*
X220785D02*
X218110D01*
Y-37124D01*
X220002Y-36340D01*
X220785Y-34449D01*
D02*
G37*
G36*
X-67323Y-304134D02*
X-69998D01*
X-69214Y-306025D01*
X-67323Y-306809D01*
Y-304134D01*
D02*
G37*
G36*
X-35393Y-261107D02*
X-37909Y-262149D01*
X-38951Y-264665D01*
X-38892Y-264809D01*
X-61109Y-304495D01*
X-61603Y-304699D01*
X-62623Y-304134D01*
X-65748D01*
Y-306809D01*
X-64022Y-306094D01*
X-62635Y-306862D01*
X-62635Y-306862D01*
X-62810Y-307283D01*
X-61768Y-309800D01*
X-59252Y-310842D01*
X-56736Y-309800D01*
X-55694Y-307283D01*
X-55753Y-307140D01*
X-33535Y-267454D01*
X-32877Y-267181D01*
X-31834Y-264665D01*
X-32877Y-262149D01*
X-35393Y-261107D01*
D02*
G37*
G36*
X-320276Y-24087D02*
X-326280Y-26574D01*
X-328767Y-32579D01*
X-320276D01*
Y-24087D01*
D02*
G37*
G36*
X179921Y-9744D02*
X177246D01*
X178030Y-11636D01*
X179921Y-12419D01*
Y-9744D01*
D02*
G37*
G36*
X173442D02*
X170768D01*
Y-12419D01*
X172659Y-11636D01*
X173442Y-9744D01*
D02*
G37*
G36*
X169193D02*
X166518D01*
X167301Y-11636D01*
X169193Y-12419D01*
Y-9744D01*
D02*
G37*
G36*
X194604D02*
X191929D01*
Y-12419D01*
X193820Y-11636D01*
X194604Y-9744D01*
D02*
G37*
G36*
X190354D02*
X187679D01*
X188463Y-11636D01*
X190354Y-12419D01*
Y-9744D01*
D02*
G37*
G36*
X184171D02*
X181496D01*
Y-12419D01*
X183387Y-11636D01*
X184171Y-9744D01*
D02*
G37*
G36*
X297063Y-19783D02*
X295275D01*
Y-21768D01*
X297063D01*
Y-19783D01*
D02*
G37*
G36*
X-186713Y-26951D02*
Y-29626D01*
X-184038D01*
X-184821Y-27735D01*
X-186713Y-26951D01*
D02*
G37*
G36*
X-300Y-373875D02*
X-5196Y-375904D01*
X-7225Y-380800D01*
X-5196Y-385697D01*
X-300Y-387725D01*
X4597Y-385697D01*
X6625Y-380800D01*
X4597Y-375904D01*
X-300Y-373875D01*
D02*
G37*
G36*
X81807Y-14945D02*
X79823D01*
Y-16732D01*
X81807D01*
Y-14945D01*
D02*
G37*
G36*
X78248D02*
X76264D01*
Y-16732D01*
X78248D01*
Y-14945D01*
D02*
G37*
G36*
X297063Y-16224D02*
X295275D01*
Y-18209D01*
X297063D01*
Y-16224D01*
D02*
G37*
G36*
X205807Y-34449D02*
X203132D01*
X203916Y-36340D01*
X205807Y-37124D01*
Y-34449D01*
D02*
G37*
G36*
X-328900Y-183375D02*
X-333797Y-185404D01*
X-335825Y-190300D01*
X-333797Y-195196D01*
X-328900Y-197225D01*
X-324004Y-195196D01*
X-321975Y-190300D01*
X-324004Y-185404D01*
X-328900Y-183375D01*
D02*
G37*
G36*
X330400Y-183675D02*
X325503Y-185704D01*
X323475Y-190600D01*
X325503Y-195496D01*
X330400Y-197525D01*
X335297Y-195496D01*
X337325Y-190600D01*
X335297Y-185704D01*
X330400Y-183675D01*
D02*
G37*
G36*
X214469Y-158056D02*
X211952Y-159098D01*
X210910Y-161614D01*
X211952Y-164130D01*
X212715Y-164446D01*
X236612Y-202972D01*
X236062Y-203805D01*
X235442Y-204192D01*
X234547Y-203821D01*
Y-207283D01*
Y-210746D01*
X236439Y-209962D01*
X237490Y-207423D01*
X237548Y-207283D01*
X237548D01*
X238835Y-206276D01*
X240354Y-206905D01*
X242870Y-205862D01*
X243913Y-203346D01*
X242870Y-200830D01*
X242108Y-200515D01*
X218007Y-161661D01*
X218027Y-161614D01*
X216985Y-159098D01*
X214469Y-158056D01*
D02*
G37*
G36*
X-297244Y-93191D02*
X-299135Y-93975D01*
X-299919Y-95866D01*
X-297244D01*
Y-93191D01*
D02*
G37*
G36*
X299624Y-95768D02*
X292699D01*
X293483Y-97659D01*
X293788Y-97786D01*
X293469Y-99358D01*
X249448Y-98997D01*
X248031Y-98410D01*
X245515Y-99452D01*
X244473Y-101969D01*
X245515Y-104485D01*
X248031Y-105527D01*
X249393Y-104963D01*
X294646Y-105334D01*
X296063Y-105921D01*
X298579Y-104878D01*
X299621Y-102362D01*
X298579Y-99846D01*
X298127Y-99659D01*
Y-97954D01*
X298840Y-97659D01*
X299624Y-95768D01*
D02*
G37*
G36*
X-292994Y-97441D02*
X-299919D01*
X-299135Y-99332D01*
X-297947Y-99825D01*
Y-101529D01*
X-298874Y-101913D01*
X-299917Y-104429D01*
X-298874Y-106945D01*
X-296358Y-107987D01*
X-294969Y-107412D01*
X-249716D01*
X-248327Y-107987D01*
X-245811Y-106945D01*
X-244769Y-104429D01*
X-245811Y-101913D01*
X-248327Y-100871D01*
X-249716Y-101446D01*
X-293820D01*
X-294085Y-101164D01*
X-293778Y-99332D01*
X-292994Y-97441D01*
D02*
G37*
G36*
X-217224Y-157761D02*
X-219741Y-158803D01*
X-220783Y-161319D01*
X-220756Y-161384D01*
X-243900Y-199440D01*
X-244642Y-199748D01*
X-245684Y-202264D01*
X-244642Y-204780D01*
X-242126Y-205822D01*
X-240943Y-205332D01*
X-239517Y-206004D01*
X-239517Y-206004D01*
X-239360Y-206381D01*
X-238407Y-208683D01*
X-236516Y-209466D01*
Y-206004D01*
Y-202542D01*
X-237110Y-202788D01*
X-238188Y-201530D01*
X-215450Y-164142D01*
X-214708Y-163835D01*
X-213666Y-161319D01*
X-214708Y-158803D01*
X-217224Y-157761D01*
D02*
G37*
G36*
X232972Y-208071D02*
X230298D01*
X231081Y-209962D01*
X232972Y-210746D01*
Y-208071D01*
D02*
G37*
G36*
X213090Y-62140D02*
X-213090D01*
X-213693Y-62389D01*
X-213943Y-62992D01*
Y-123031D01*
X-213899Y-123138D01*
X-213914Y-123252D01*
X-213778Y-123429D01*
X-213693Y-123634D01*
X-213587Y-123678D01*
X-213517Y-123770D01*
X-426Y-246801D01*
X-312Y-246816D01*
X-221Y-246886D01*
X0Y-246857D01*
X221Y-246886D01*
X312Y-246816D01*
X426Y-246801D01*
X213517Y-123770D01*
X213587Y-123678D01*
X213693Y-123634D01*
X213778Y-123429D01*
X213914Y-123252D01*
X213899Y-123138D01*
X213943Y-123031D01*
Y-62992D01*
X213693Y-62389D01*
X213090Y-62140D01*
D02*
G37*
G36*
X-234941Y-202542D02*
Y-205217D01*
X-232266D01*
X-233050Y-203325D01*
X-234941Y-202542D01*
D02*
G37*
G36*
X232972Y-203821D02*
X231081Y-204605D01*
X230298Y-206496D01*
X232972D01*
Y-203821D01*
D02*
G37*
G36*
X-232266Y-206791D02*
X-234941D01*
Y-209466D01*
X-233050Y-208683D01*
X-232266Y-206791D01*
D02*
G37*
G36*
X-295669Y-93191D02*
Y-95866D01*
X-292994D01*
X-293778Y-93975D01*
X-295669Y-93191D01*
D02*
G37*
G36*
X-67323Y-299884D02*
X-69214Y-300668D01*
X-69998Y-302559D01*
X-67323D01*
Y-299884D01*
D02*
G37*
G36*
X153430Y-38404D02*
Y-42634D01*
X157660D01*
X156421Y-39643D01*
X153430Y-38404D01*
D02*
G37*
G36*
X-65748Y-299884D02*
Y-302559D01*
X-63073D01*
X-63857Y-300668D01*
X-65748Y-299884D01*
D02*
G37*
G36*
X142800Y-28465D02*
X139184Y-29963D01*
X137686Y-33579D01*
X139184Y-37195D01*
X142800Y-38692D01*
X146416Y-37195D01*
X147914Y-33579D01*
X146416Y-29963D01*
X142800Y-28465D01*
D02*
G37*
G36*
X-228104Y-32100D02*
X-231003Y-33301D01*
X-232203Y-36200D01*
X-231003Y-39099D01*
X-228104Y-40299D01*
X-225205Y-39099D01*
X-224005Y-36200D01*
X-225205Y-33301D01*
X-228104Y-32100D01*
D02*
G37*
G36*
X-241096D02*
X-243995Y-33301D01*
X-245196Y-36200D01*
X-243995Y-39099D01*
X-241096Y-40299D01*
X-238197Y-39099D01*
X-236997Y-36200D01*
X-238197Y-33301D01*
X-241096Y-32100D01*
D02*
G37*
G36*
X302756Y-68291D02*
X300772D01*
Y-70079D01*
X302756D01*
Y-68291D01*
D02*
G37*
G36*
X296949Y-91518D02*
Y-94193D01*
X299624D01*
X298840Y-92301D01*
X296949Y-91518D01*
D02*
G37*
G36*
X295374D02*
X293483Y-92301D01*
X292699Y-94193D01*
X295374D01*
Y-91518D01*
D02*
G37*
G36*
X151855Y-38404D02*
X148864Y-39643D01*
X147625Y-42634D01*
X151855D01*
Y-38404D01*
D02*
G37*
G36*
X-322217Y-53445D02*
X-330709D01*
Y-61936D01*
X-324704Y-59449D01*
X-322217Y-53445D01*
D02*
G37*
G36*
X306315Y-68291D02*
X304331D01*
Y-70079D01*
X306315D01*
Y-68291D01*
D02*
G37*
G36*
X169193Y-5494D02*
X167301Y-6278D01*
X166518Y-8169D01*
X169193D01*
Y-5494D01*
D02*
G37*
G36*
X329700Y197725D02*
X324803Y195696D01*
X322775Y190800D01*
X324803Y185904D01*
X329700Y183875D01*
X334596Y185904D01*
X336625Y190800D01*
X334596Y195696D01*
X329700Y197725D01*
D02*
G37*
G36*
X-328900Y197325D02*
X-333797Y195297D01*
X-335825Y190400D01*
X-333797Y185503D01*
X-328900Y183475D01*
X-324004Y185503D01*
X-321975Y190400D01*
X-324004Y195297D01*
X-328900Y197325D01*
D02*
G37*
G36*
X234055Y211927D02*
Y208465D01*
Y205002D01*
X234751Y205290D01*
X234929Y205211D01*
X235922Y204071D01*
X212658Y164422D01*
X211952Y164130D01*
X210910Y161614D01*
X211952Y159098D01*
X214469Y158056D01*
X216985Y159098D01*
X218027Y161614D01*
X217986Y161714D01*
X241575Y201916D01*
X242280Y202208D01*
X243322Y204724D01*
X242280Y207241D01*
X239764Y208283D01*
X238462Y207743D01*
X237056Y208465D01*
X237056Y208465D01*
X236914Y208807D01*
X235946Y211143D01*
X234055Y211927D01*
D02*
G37*
G36*
X232480Y207677D02*
X229805D01*
X230589Y205786D01*
X232480Y205002D01*
Y207677D01*
D02*
G37*
G36*
X-230888Y205118D02*
X-233563D01*
Y202443D01*
X-231672Y203227D01*
X-230888Y205118D01*
D02*
G37*
G36*
X-241240Y205330D02*
X-243756Y204288D01*
X-244798Y201772D01*
X-243756Y199256D01*
X-243034Y198957D01*
X-220453Y161107D01*
X-220487Y161024D01*
X-219445Y158508D01*
X-216929Y157465D01*
X-214413Y158508D01*
X-213371Y161024D01*
X-214413Y163540D01*
X-215135Y163839D01*
X-237717Y201688D01*
X-237682Y201772D01*
X-237717Y201857D01*
X-236487Y203002D01*
X-235138Y202443D01*
Y205118D01*
X-238615D01*
X-239266Y204512D01*
X-241240Y205330D01*
D02*
G37*
G36*
X295866Y110645D02*
X294449Y110058D01*
X249393Y109687D01*
X248031Y110251D01*
X245515Y109209D01*
X244473Y106693D01*
X245515Y104177D01*
X248031Y103135D01*
X249448Y103721D01*
X293757Y104086D01*
X294076Y102514D01*
X293286Y102187D01*
X292502Y100295D01*
X299427D01*
X298643Y102187D01*
X297693Y102580D01*
Y104285D01*
X298382Y104570D01*
X299424Y107087D01*
X298382Y109603D01*
X295866Y110645D01*
D02*
G37*
G36*
X-292896Y95669D02*
X-295571D01*
Y92994D01*
X-293679Y93778D01*
X-292896Y95669D01*
D02*
G37*
G36*
X-297146D02*
X-299820D01*
X-299037Y93778D01*
X-297146Y92994D01*
Y95669D01*
D02*
G37*
G36*
X313992Y88894D02*
X312008D01*
Y87106D01*
X313992D01*
Y88894D01*
D02*
G37*
G36*
X-248327Y107791D02*
X-249716Y107215D01*
X-294969D01*
X-296358Y107791D01*
X-298874Y106748D01*
X-299917Y104232D01*
X-298874Y101716D01*
X-297898Y101312D01*
Y99607D01*
X-299037Y99136D01*
X-299820Y97244D01*
X-292896D01*
X-293679Y99136D01*
X-294039Y100989D01*
X-293801Y101249D01*
X-249716D01*
X-248327Y100674D01*
X-245811Y101716D01*
X-244769Y104232D01*
X-245811Y106748D01*
X-248327Y107791D01*
D02*
G37*
G36*
X299427Y98721D02*
X296752D01*
Y96046D01*
X298643Y96829D01*
X299427Y98721D01*
D02*
G37*
G36*
X295177D02*
X292502D01*
X293286Y96829D01*
X295177Y96046D01*
Y98721D01*
D02*
G37*
G36*
X-66929Y307104D02*
X-68821Y306321D01*
X-69604Y304429D01*
X-66929D01*
Y307104D01*
D02*
G37*
G36*
X68620Y304528D02*
X65945D01*
Y301853D01*
X67836Y302636D01*
X68620Y304528D01*
D02*
G37*
G36*
X58071Y312613D02*
X55555Y311571D01*
X54513Y309055D01*
X54569Y308918D01*
X31912Y268737D01*
X31246Y268461D01*
X30204Y265945D01*
X31246Y263429D01*
X33762Y262387D01*
X36279Y263429D01*
X37321Y265945D01*
X37264Y266082D01*
X59215Y305012D01*
X61248Y305411D01*
X61353Y305328D01*
X61384Y305279D01*
X62479Y302636D01*
X64370Y301853D01*
Y305315D01*
Y308777D01*
X62980Y308201D01*
X61844Y308919D01*
X61586Y309159D01*
X60587Y311571D01*
X58071Y312613D01*
D02*
G37*
G36*
X-100Y387725D02*
X-4997Y385697D01*
X-7025Y380800D01*
X-4997Y375904D01*
X-100Y373875D01*
X4797Y375904D01*
X6825Y380800D01*
X4797Y385697D01*
X-100Y387725D01*
D02*
G37*
G36*
X-59547Y311039D02*
X-62063Y309996D01*
X-62965Y307819D01*
X-63956Y307040D01*
X-64509Y306754D01*
X-65354Y307104D01*
Y303642D01*
Y300180D01*
X-63463Y300963D01*
X-62464Y303375D01*
X-60898Y303804D01*
X-38895Y264802D01*
X-38951Y264665D01*
X-37909Y262149D01*
X-35393Y261107D01*
X-32877Y262149D01*
X-31834Y264665D01*
X-32877Y267181D01*
X-33543Y267457D01*
X-56045Y307344D01*
X-55989Y307480D01*
X-57031Y309996D01*
X-59547Y311039D01*
D02*
G37*
G36*
X65945Y308777D02*
Y306102D01*
X68620D01*
X67836Y307994D01*
X65945Y308777D01*
D02*
G37*
G36*
X-66929Y302854D02*
X-69604D01*
X-68821Y300963D01*
X-66929Y300180D01*
Y302854D01*
D02*
G37*
G36*
X232480Y211927D02*
X230589Y211143D01*
X229805Y209252D01*
X232480D01*
Y211927D01*
D02*
G37*
G36*
X-233563Y209368D02*
Y206693D01*
X-230888D01*
X-231672Y208584D01*
X-233563Y209368D01*
D02*
G37*
G36*
X-235138D02*
X-237029Y208584D01*
X-237813Y206693D01*
X-235138D01*
Y209368D01*
D02*
G37*
G36*
X-10024Y300126D02*
X-12540Y299084D01*
X-13582Y296568D01*
X-12540Y294052D01*
X-10024Y293010D01*
X-9161Y293367D01*
X-7981Y292395D01*
Y284752D01*
X-9005Y284327D01*
X-10047Y281811D01*
X-9005Y279295D01*
X-6489Y278253D01*
X-3973Y279295D01*
X-2931Y281811D01*
X-3973Y284327D01*
X-4998Y284752D01*
Y293033D01*
X-4998Y293033D01*
X-5435Y294088D01*
X-6890Y295543D01*
X-6466Y296568D01*
X-7508Y299084D01*
X-10024Y300126D01*
D02*
G37*
G36*
X-20457Y318532D02*
X-22973Y317489D01*
X-24015Y314973D01*
X-22973Y312457D01*
X-21948Y312033D01*
Y296679D01*
X-21948Y296679D01*
X-21512Y295624D01*
X-18181Y292293D01*
Y278952D01*
X-19205Y278527D01*
X-20247Y276011D01*
X-19205Y273495D01*
X-16689Y272453D01*
X-14173Y273495D01*
X-13131Y276011D01*
X-14173Y278527D01*
X-15198Y278952D01*
Y292911D01*
X-15198Y292911D01*
X-15635Y293966D01*
X-18966Y297297D01*
Y312033D01*
X-17941Y312457D01*
X-16899Y314973D01*
X-17941Y317489D01*
X-20457Y318532D01*
D02*
G37*
G36*
X221Y246886D02*
X0Y246857D01*
X-221Y246886D01*
X-312Y246816D01*
X-426Y246801D01*
X-213517Y123770D01*
X-213587Y123678D01*
X-213693Y123634D01*
X-213778Y123429D01*
X-213914Y123252D01*
X-213899Y123138D01*
X-213943Y123031D01*
Y62992D01*
X-213693Y62389D01*
X-213090Y62140D01*
X213090D01*
X213693Y62389D01*
X213943Y62992D01*
Y123031D01*
X213899Y123138D01*
X213914Y123252D01*
X213778Y123429D01*
X213693Y123634D01*
X213587Y123678D01*
X213517Y123770D01*
X426Y246801D01*
X312Y246816D01*
X221Y246886D01*
D02*
G37*
G36*
X320866Y88681D02*
X315748D01*
Y83957D01*
X320866D01*
Y84614D01*
X324196D01*
X329102Y79707D01*
Y75293D01*
X327790Y74749D01*
X327229Y73395D01*
X325671Y73332D01*
X324743Y74720D01*
X325593Y76772D01*
X324220Y80086D01*
X320905Y81459D01*
X317591Y80086D01*
X316218Y76772D01*
X317068Y74720D01*
X316015Y73146D01*
X309039D01*
X307834Y72646D01*
X290239Y55051D01*
X233561D01*
X233225Y55862D01*
X230709Y56905D01*
X228193Y55862D01*
X227150Y53347D01*
X228193Y50830D01*
X230709Y49788D01*
X233225Y50830D01*
X233561Y51642D01*
X290945D01*
X292150Y52141D01*
X309745Y69736D01*
X327465D01*
X327790Y68952D01*
X330689Y67751D01*
X333588Y68952D01*
X334788Y71850D01*
X333588Y74749D01*
X332512Y75195D01*
Y80413D01*
X332012Y81619D01*
X326107Y87524D01*
X324902Y88023D01*
X320866D01*
Y88681D01*
D02*
G37*
G36*
X-239800Y10345D02*
X-242699Y9144D01*
X-243899Y6246D01*
X-242699Y3347D01*
X-239800Y2146D01*
X-236901Y3347D01*
X-235701Y6246D01*
X-236901Y9144D01*
X-239800Y10345D01*
D02*
G37*
G36*
X-135138Y-3132D02*
Y-5807D01*
X-132463D01*
X-133246Y-3916D01*
X-135138Y-3132D01*
D02*
G37*
G36*
X-136713D02*
X-138604Y-3916D01*
X-139387Y-5807D01*
X-136713D01*
Y-3132D01*
D02*
G37*
G36*
X179823Y11139D02*
X177931Y10356D01*
X177148Y8465D01*
X179823D01*
Y11139D01*
D02*
G37*
G36*
X170669D02*
Y8465D01*
X173344D01*
X172561Y10356D01*
X170669Y11139D01*
D02*
G37*
G36*
X169094D02*
X167203Y10356D01*
X166420Y8465D01*
X169094D01*
Y11139D01*
D02*
G37*
G36*
X-212598Y-5002D02*
Y-7677D01*
X-209924D01*
X-210707Y-5786D01*
X-212598Y-5002D01*
D02*
G37*
G36*
X181496Y-5494D02*
Y-8169D01*
X184171D01*
X183387Y-6278D01*
X181496Y-5494D01*
D02*
G37*
G36*
X179921D02*
X178030Y-6278D01*
X177246Y-8169D01*
X179921D01*
Y-5494D01*
D02*
G37*
G36*
X170768D02*
Y-8169D01*
X173442D01*
X172659Y-6278D01*
X170768Y-5494D01*
D02*
G37*
G36*
X-214173Y-5002D02*
X-216065Y-5786D01*
X-216848Y-7677D01*
X-214173D01*
Y-5002D01*
D02*
G37*
G36*
X191929Y-5494D02*
Y-8169D01*
X194604D01*
X193820Y-6278D01*
X191929Y-5494D01*
D02*
G37*
G36*
X190354D02*
X188463Y-6278D01*
X187679Y-8169D01*
X190354D01*
Y-5494D01*
D02*
G37*
G36*
X-185039Y45882D02*
X-286319D01*
X-287304Y45474D01*
X-307048Y25729D01*
X-307456Y24744D01*
Y23849D01*
X-308775Y23302D01*
X-309898Y20591D01*
X-308775Y17879D01*
X-306063Y16755D01*
X-303351Y17879D01*
X-302228Y20591D01*
X-303351Y23302D01*
X-303689Y25147D01*
X-285742Y43095D01*
X-185617D01*
X-182325Y39804D01*
X-182791Y38681D01*
X-181748Y36165D01*
X-179232Y35123D01*
X-176716Y36165D01*
X-175674Y38681D01*
X-176716Y41197D01*
X-179232Y42239D01*
X-180355Y41774D01*
X-184054Y45474D01*
X-185039Y45882D01*
D02*
G37*
G36*
X156181Y41107D02*
X153282Y39907D01*
X152082Y37008D01*
X153282Y34109D01*
X156181Y32908D01*
X159080Y34109D01*
X160281Y37008D01*
X159080Y39907D01*
X156181Y41107D01*
D02*
G37*
G36*
X146181D02*
X143282Y39907D01*
X142082Y37008D01*
X143282Y34109D01*
X146181Y32908D01*
X149080Y34109D01*
X150280Y37008D01*
X149080Y39907D01*
X146181Y41107D01*
D02*
G37*
G36*
X320905Y53900D02*
X317591Y52527D01*
X316218Y49213D01*
X317591Y45898D01*
X320905Y44525D01*
X324220Y45898D01*
X325593Y49213D01*
X324220Y52527D01*
X320905Y53900D01*
D02*
G37*
G36*
X-139058Y42323D02*
X-141732D01*
Y39648D01*
X-139841Y40431D01*
X-139058Y42323D01*
D02*
G37*
G36*
X-143307D02*
X-145982D01*
X-145199Y40431D01*
X-143307Y39648D01*
Y42323D01*
D02*
G37*
G36*
X297063Y32185D02*
X295276D01*
Y30201D01*
X297063D01*
Y32185D01*
D02*
G37*
G36*
X191831Y11139D02*
Y8465D01*
X194505D01*
X193722Y10356D01*
X191831Y11139D01*
D02*
G37*
G36*
X190256D02*
X188364Y10356D01*
X187581Y8465D01*
X190256D01*
Y11139D01*
D02*
G37*
G36*
X181398D02*
Y8465D01*
X184072D01*
X183289Y10356D01*
X181398Y11139D01*
D02*
G37*
G36*
X-305276Y14330D02*
Y11378D01*
X-302324D01*
X-303188Y13465D01*
X-305276Y14330D01*
D02*
G37*
G36*
X-108465Y12517D02*
Y9843D01*
X-105790D01*
X-106573Y11734D01*
X-108465Y12517D01*
D02*
G37*
G36*
X-110039D02*
X-111931Y11734D01*
X-112714Y9843D01*
X-110039D01*
Y12517D01*
D02*
G37*
%LPD*%
D15*
X311221Y86319D02*
D03*
X318307D02*
D03*
X303543Y-70866D02*
D03*
X310630D02*
D03*
X71949Y-17520D02*
D03*
X79035D02*
D03*
X71757Y-50700D02*
D03*
X78843D02*
D03*
D18*
X294488Y-18996D02*
D03*
Y-26083D02*
D03*
X294488Y25886D02*
D03*
Y32972D02*
D03*
D19*
X-10024Y296568D02*
X-6489Y293033D01*
X-20457Y296679D02*
Y314973D01*
Y296679D02*
X-16689Y292911D01*
X-6489Y281811D02*
Y293033D01*
X-16689Y276011D02*
Y292911D01*
D20*
X-306063Y591D02*
X-306063Y591D01*
X-292421D01*
X-267421Y25591D01*
X-227264D01*
X-296063Y5591D02*
X-271142Y30512D01*
X-221063D01*
X-286319Y44488D02*
X-185039D01*
X-306063Y24744D02*
X-286319Y44488D01*
X-306063Y20591D02*
Y24744D01*
X-185039Y44488D02*
X-179232Y38681D01*
X-2559Y16339D02*
X0Y13780D01*
X-153543Y16339D02*
X-2559D01*
X-171653Y-24213D02*
X-165551Y-30315D01*
X-171653Y-24213D02*
Y-1772D01*
X-153543Y16339D01*
D21*
X-319488Y-33366D02*
X-307579Y-21457D01*
X-316043Y-12992D02*
X-307579Y-21457D01*
X-316043Y-12992D02*
Y610D01*
Y29823D02*
X-291437Y54429D01*
X-316043Y610D02*
Y29823D01*
Y610D02*
X-306063Y10591D01*
X-192224Y37402D02*
X-175492Y20669D01*
X-282579Y37402D02*
X-192224D01*
X-199635Y20669D02*
X-155512D01*
X-208296Y12008D02*
X-199635Y20669D01*
X-295669Y24311D02*
X-282579Y37402D01*
X-296063Y15591D02*
X-295669Y15984D01*
Y24311D01*
X-242126Y-202264D02*
X-217224Y-161319D01*
X-59547Y307480D02*
X-35393Y264665D01*
X-241240Y201772D02*
X-216929Y161024D01*
X-296358Y104232D02*
X-248327D01*
X248031Y106693D02*
X295866Y107087D01*
X214469Y161614D02*
X239764Y204724D01*
X33762Y265945D02*
X58071Y309055D01*
X214469Y-161614D02*
X240354Y-203346D01*
X33762Y-265945D02*
X58661Y-307972D01*
X-296358Y-104429D02*
X-248327D01*
X248031Y-101969D02*
X296063Y-102362D01*
X-59252Y-307283D02*
X-35393Y-264665D01*
X-308276Y-32866D02*
X-296358Y-44783D01*
X-319988Y-32866D02*
X-308276D01*
X-135925Y-16059D02*
Y-6594D01*
X330689Y10512D02*
Y54134D01*
X320177Y0D02*
X330346Y10169D01*
X320177Y0D02*
X330709Y-10531D01*
Y-54134D02*
Y-10531D01*
X314961Y0D02*
X320177D01*
X71063D02*
X314961D01*
X65059Y-6004D02*
X71063Y0D01*
X-116831Y-37894D02*
X-107874D01*
X-120276Y-34449D02*
X-116831Y-37894D01*
X-107874D02*
X48031D01*
X-307874Y-52658D02*
X-142194D01*
X-78445Y54429D02*
X218898D01*
X-5118Y39283D02*
Y45276D01*
X-14075Y54232D02*
X-5118Y45276D01*
X-5788Y38613D02*
X-5118Y39283D01*
X-14961Y27756D02*
Y39400D01*
Y27756D02*
X-7874Y20669D01*
X48031Y-37894D02*
X53234Y-43096D01*
X-165847Y47539D02*
X-139469Y21161D01*
X55596Y-34041D02*
X90972D01*
X50197Y-28642D02*
X55596Y-34041D01*
X-59994Y32336D02*
Y39400D01*
X-69836D02*
Y45821D01*
X90972Y-34041D02*
X109766D01*
X-72449Y-30700D02*
Y-26369D01*
X-331496Y-45374D02*
X-319488Y-33366D01*
X-331496Y-52658D02*
Y-45374D01*
X53234Y-43096D02*
X65028D01*
X-107874Y-37894D02*
X-101976Y-31996D01*
Y-30700D01*
X145737Y-50327D02*
X152643Y-43421D01*
X126052Y-50327D02*
X145737D01*
X109766Y-34041D02*
X126052Y-50327D01*
X-217717Y-21457D02*
X-213386Y-17126D01*
Y-8465D01*
X-195752Y-43421D02*
X-163287D01*
X-152643D01*
X-207874Y-30413D02*
X-187500D01*
X-217717Y-21457D02*
X-195752Y-43421D01*
X-59994Y32336D02*
X-48425Y20768D01*
X-85728Y26870D02*
X-79528Y20669D01*
X65028Y-25104D02*
Y-6004D01*
X40256Y-295D02*
X59350D01*
X65059Y-6004D01*
X50197Y-28642D02*
Y-22638D01*
X46850Y-19291D02*
X50197Y-22638D01*
X-163287Y-43421D02*
X-145142Y-25276D01*
X-139157Y-19291D01*
X-79331Y-19487D02*
X-72449Y-26369D01*
X-145142Y-25276D02*
X-117243D01*
X-111819Y-30700D01*
X-176181Y-30906D02*
X-169783Y-37303D01*
X-176181Y-30906D02*
Y-0D01*
X-155512Y20669D01*
X-78445Y54429D02*
X-69836Y45821D01*
X-149311Y54429D02*
X-78445D01*
X-149311D02*
X-142520Y47638D01*
Y43110D02*
Y47638D01*
X-291437Y54429D02*
X-149311D01*
X-258071Y-21457D02*
X-249311Y-30217D01*
X-307579Y-21457D02*
X-258071D01*
X-217717D01*
X19291Y20669D02*
X40256Y-295D01*
X-7874Y20669D02*
X19291D01*
X-79528D02*
X-7874D01*
X-155512D02*
X-79528D01*
X-139157Y-19291D02*
X-135925Y-16059D01*
X-121752Y-19291D02*
X-109252Y-6791D01*
Y9055D01*
X-139157Y-19291D02*
X-121752D01*
X35819Y-30700D02*
Y-26173D01*
X28937Y-19291D02*
X35819Y-26173D01*
X-121752Y-19291D02*
X28937D01*
X46850D01*
X-123985Y-34449D02*
X-120276D01*
X-142194Y-52658D02*
X-123985Y-34449D01*
D22*
X311417Y-83858D02*
X329134D01*
X303543Y-75984D02*
X311417Y-83858D01*
X303543Y-75984D02*
Y-70866D01*
X337051Y-75941D02*
Y56362D01*
X329134Y-83858D02*
X337051Y-75941D01*
X333901Y59512D02*
X337051Y56362D01*
X281988Y45472D02*
X294587D01*
X308626Y59512D01*
X333901D01*
X219685Y53642D02*
X227854Y45472D01*
X219685Y55020D02*
X228150Y63484D01*
X190847Y-18996D02*
X294488D01*
X159516Y-50327D02*
X190847Y-18996D01*
X145737Y-50327D02*
X159516D01*
X228150Y63484D02*
X288386D01*
X311221Y86319D01*
X227854Y45472D02*
X281988D01*
X294488Y32972D01*
D23*
X78843Y-50700D02*
X90972Y-38571D01*
Y-34041D01*
Y-29457D01*
X79035Y-17520D02*
X90972Y-29457D01*
X71757Y-50700D02*
Y-49825D01*
X65028Y-25104D02*
X71949Y-18183D01*
Y-17520D01*
X65028Y-43096D02*
X71757Y-49825D01*
D24*
X310039Y26575D02*
D03*
Y-26575D02*
D03*
D25*
X305118Y-9843D02*
D03*
Y9843D02*
D03*
X314961D02*
D03*
Y-9843D02*
D03*
Y0D02*
D03*
X-142800Y-33579D02*
D03*
X-132957Y-43421D02*
D03*
X-152643D02*
D03*
X142800Y-33579D02*
D03*
X152643Y-43421D02*
D03*
X132957D02*
D03*
X35819Y-30700D02*
D03*
X25976D02*
D03*
X16134D02*
D03*
X6291D02*
D03*
X-3551D02*
D03*
X-13394D02*
D03*
X-23236D02*
D03*
X-33079D02*
D03*
X-42921D02*
D03*
X-52764D02*
D03*
X-62606D02*
D03*
X-72449D02*
D03*
X-82291D02*
D03*
X-92134D02*
D03*
X-101976D02*
D03*
X-111819D02*
D03*
X-59994Y39400D02*
D03*
X-69836D02*
D03*
X-79679D02*
D03*
X-89521D02*
D03*
X-99364D02*
D03*
X-109206D02*
D03*
X24528D02*
D03*
X14685D02*
D03*
X4843D02*
D03*
X-5000D02*
D03*
X-14842D02*
D03*
X-24685D02*
D03*
D26*
X-239800Y-13046D02*
D03*
Y6246D02*
D03*
X330689Y54134D02*
D03*
Y71850D02*
D03*
Y-71850D02*
D03*
Y-54134D02*
D03*
X-228104Y-36200D02*
D03*
X-241096D02*
D03*
X156181Y37008D02*
D03*
X146181D02*
D03*
D27*
X320905Y49213D02*
D03*
Y76772D02*
D03*
Y-76772D02*
D03*
Y-49213D02*
D03*
D28*
X-296063Y5591D02*
D03*
Y-4409D02*
D03*
X-306063Y20591D02*
D03*
Y10591D02*
D03*
X-296063Y15591D02*
D03*
X-306063Y591D02*
D03*
D29*
X-331102Y-11929D02*
D03*
Y28071D02*
D03*
D30*
X-331496Y-52658D02*
D03*
X-319488Y-33366D02*
D03*
D31*
X-307874Y-52658D02*
D03*
D32*
X-100Y380800D02*
D03*
X329700Y190800D02*
D03*
X-328900Y190400D02*
D03*
Y-190300D02*
D03*
X-300Y-380800D02*
D03*
X330400Y-190600D02*
D03*
D33*
X-179232Y38681D02*
D03*
X-217224Y-161319D02*
D03*
X-242126Y-202264D02*
D03*
X-59547Y307480D02*
D03*
X-35393Y264665D02*
D03*
X-241240Y201772D02*
D03*
X-216929Y161024D02*
D03*
X-296358Y104232D02*
D03*
X-248327D02*
D03*
X248031Y106693D02*
D03*
X295866Y107087D02*
D03*
X239764Y204724D02*
D03*
X214469Y161614D02*
D03*
X58071Y309055D02*
D03*
X33762Y265945D02*
D03*
X240354Y-203346D02*
D03*
X214469Y-161614D02*
D03*
X58661Y-307972D02*
D03*
X33762Y-265945D02*
D03*
X-248327Y-104429D02*
D03*
X-296358D02*
D03*
X296063Y-102362D02*
D03*
X248031Y-101969D02*
D03*
X-59252Y-307283D02*
D03*
X-35393Y-264665D02*
D03*
X-135925Y-6594D02*
D03*
X213878Y16339D02*
D03*
X172244Y-52559D02*
D03*
X-121752Y-42126D02*
D03*
X-221063Y30512D02*
D03*
X-169783Y-37303D02*
D03*
X-10024Y296568D02*
D03*
X-20457Y314973D02*
D03*
X-6489Y281811D02*
D03*
X-142520Y43110D02*
D03*
X-213386Y-8465D02*
D03*
X-187500Y-30413D02*
D03*
X230709Y53347D02*
D03*
X-296358Y-44783D02*
D03*
X-208296Y12008D02*
D03*
X-165847Y47539D02*
D03*
X-227264Y25591D02*
D03*
X-85728Y26870D02*
D03*
X-109252Y9055D02*
D03*
X-165551Y-30315D02*
D03*
X0Y13780D02*
D03*
X-249311Y-30217D02*
D03*
X191142Y-8957D02*
D03*
X180709D02*
D03*
X169980D02*
D03*
X169882Y7677D02*
D03*
X180610D02*
D03*
X191043D02*
D03*
X227658Y-17028D02*
D03*
X217224D02*
D03*
X206496D02*
D03*
X206594Y-33661D02*
D03*
X217323D02*
D03*
X227756D02*
D03*
X-16689Y276011D02*
D03*
X-296457Y-96653D02*
D03*
X-296358Y96457D02*
D03*
X-234350Y205906D02*
D03*
X-66142Y303642D02*
D03*
X65158Y305315D02*
D03*
X233268Y208465D02*
D03*
X295965Y99508D02*
D03*
X296161Y-94980D02*
D03*
X-66535Y-303346D02*
D03*
X-235728Y-206004D02*
D03*
X233760Y-207283D02*
D03*
X65113Y-304042D02*
D03*
D34*
X65028Y-25104D02*
D03*
Y-43096D02*
D03*
D35*
X90972Y-34041D02*
D03*
D36*
X310630Y-70866D02*
Y-56299D01*
X329705Y-70866D02*
X330689Y-71850D01*
X310630Y-70866D02*
X329705D01*
X330689Y71850D02*
X330807Y71969D01*
Y80413D01*
X324902Y86319D02*
X330807Y80413D01*
X318307Y86319D02*
X324902D01*
X330279Y71441D02*
X330689Y71850D01*
X309039Y71441D02*
X330279D01*
X281791Y-27461D02*
X310630Y-56299D01*
X298917Y25886D02*
X308465Y16339D01*
X314961Y9843D01*
X213878Y16339D02*
X308465D01*
X290945Y53347D02*
X309039Y71441D01*
X230709Y53347D02*
X290945D01*
X197343Y-27461D02*
X281791D01*
X172244Y-52559D02*
X197343Y-27461D01*
X193799Y-23425D02*
X284547D01*
X162500Y-54724D02*
X193799Y-23425D01*
X44685Y-42126D02*
X57284Y-54724D01*
X-121752Y-42126D02*
X44685D01*
X294488Y25886D02*
X298917D01*
X294488Y-26083D02*
X298721D01*
X314961Y-9843D01*
X318799Y-13681D01*
Y-31004D02*
Y-13681D01*
X314469Y-35335D02*
X318799Y-31004D01*
X296457Y-35335D02*
X314469D01*
X284547Y-23425D02*
X296457Y-35335D01*
X57284Y-54724D02*
X162500D01*
M02*
