M48
;Layer_Color=9474304
;FILE_FORMAT=2:5
INCH,LZ
;TYPE=PLATED
T1F00S00C0.02800
T2F00S00C0.03000
T3F00S00C0.03543
T4F00S00C0.03937
T5F00S00C0.11811
T6F00S00C0.13780
;TYPE=NON_PLATED
T7F00S00C0.05118
T8F00S00C0.08268
T9F00S00C0.11220
T10F00S00C0.12795
%
T01
X-0059252Y-0307283
X0058661Y-0307972
X-0235728Y-0206004
X-0242126Y-0202264
X-0217224Y-0161319
X-0035393Y-0264665
X-0066535Y-0303346
X0065113Y-0304042
X0033762Y-0265945
X023376Y-0207283
X0240354Y-0203346
X0214469Y-0161614
X0248031Y-0101969
X0296063Y-0102362
X0296161Y-009498
X0227756Y-0033661
X0217323
X0206594
X0206496Y-0017028
X0217224
X0227658
X0191142Y-0008957
X0180709
X016998
X0172244Y-0052559
X-0121752Y-0042126
X-0135925Y-0006594
X-0165551Y-0030315
X-0169783Y-0037303
X-01875Y-0030413
X-0213386Y-0008465
X-0249311Y-0030217
X-0296358Y-0044783
X-0296457Y-0096653
X-0296358Y-0104429
X-0248327
X-0227264Y0025591
X-0248327Y0104232
X-0296358
X-0296358Y0096457
X-0221063Y0030512
X-0208296Y0012008
X-0179232Y0038681
X-0165847Y0047539
X-014252Y004311
X-0109252Y0009055
X-0085728Y002687
X-0216929Y0161024
X0Y001378
X0169882Y0007677
X018061
X0191043
X0213878Y0016339
X0230709Y0053347
X0214469Y0161614
X0248031Y0106693
X0295866Y0107087
X0295965Y0099508
X0239764Y0204724
X0233268Y0208465
X0033762Y0265945
X-0006489Y0281811
X-0016689Y0276011
X-0010024Y0296568
X-0020457Y0314973
X-0059547Y030748
X-0066142Y0303642
X-0035393Y0264665
X0058071Y0309055
X0065158Y0305315
X-023435Y0205906
X-024124Y0201772
T02
X-0241096Y-00362
X-0228104
X-02398Y-0013046
Y0006246
X0146181Y0037008
X0156181
T03
X-0306063Y0000591
X-0296063Y0005591
Y-0004409
Y0015591
X-0306063Y0020591
Y0010591
T04
X0330689Y-007185
Y-0054134
X0314961Y-0009843
X0305118
X0314961Y0
X01428Y-0033579
X0152643Y-0043421
X0132957
X0036161Y-0030898
X0035819Y-00307
X0026318Y-0030898
X0025976Y-00307
X0016476Y-0030898
X0016134Y-00307
X0006633Y-0030898
X0006291Y-00307
X-0003209Y-0030898
X-0003551Y-00307
X-0013052Y-0030898
X-0013394Y-00307
X-0022895Y-0030898
X-0023236Y-00307
X-0032737Y-0030898
X-0033079Y-00307
X-0042579Y-0030898
X-0042921Y-00307
X-0052422Y-0030898
X-0052764Y-00307
X-0062265Y-0030898
X-0062606Y-00307
X-0072107Y-0030898
X-0072449Y-00307
X-008195Y-0030898
X-0082291Y-00307
X-0091792Y-0030898
X-0092134Y-00307
X-0101635Y-0030898
X-0101976Y-00307
X-0111477Y-0030898
X-0111819Y-00307
X-01428Y-0033579
X-0132957Y-0043421
X-0152643
X-0109206Y00394
X-0099364
X-0089521
X-0079679
X-0069836
X-0059994
X-0024685
X-0014842
X-0005
X0004843
X0014685
X0024528
X0305118Y0009843
X0314961
X0330689Y0054134
Y007185
T05
X-0331496Y-0052658
X-0319488Y-0033366
T06
X-0307874Y-0052658
T07
X0320905Y-0076772
Y-0049213
Y0049213
Y0076772
T08
X0310039Y-0026575
Y0026575
T09
X-00003Y-03808
X-03289Y-01903
X03304Y-01906
X03297Y01908
X-03289Y01904
X-00001Y03808
T10
X-0331102Y-0011929
Y0028071
M30
