%FSLAX25Y25*%
%MOIN*%
G70*
G01*
G75*
G04 Layer_Physical_Order=1*
G04 Layer_Color=255*
%ADD10R,0.01969X0.05906*%
%ADD11R,0.05906X0.01969*%
G04:AMPARAMS|DCode=12|XSize=59.06mil|YSize=35.43mil|CornerRadius=0mil|HoleSize=0mil|Usage=FLASHONLY|Rotation=120.000|XOffset=0mil|YOffset=0mil|HoleType=Round|Shape=Rectangle|*
%AMROTATEDRECTD12*
4,1,4,0.03011,-0.01671,-0.00058,-0.03443,-0.03011,0.01671,0.00058,0.03443,0.03011,-0.01671,0.0*
%
%ADD12ROTATEDRECTD12*%

%ADD13R,0.05906X0.03543*%
G04:AMPARAMS|DCode=14|XSize=59.06mil|YSize=35.43mil|CornerRadius=0mil|HoleSize=0mil|Usage=FLASHONLY|Rotation=240.000|XOffset=0mil|YOffset=0mil|HoleType=Round|Shape=Rectangle|*
%AMROTATEDRECTD14*
4,1,4,-0.00058,0.03443,0.03011,0.01671,0.00058,-0.03443,-0.03011,-0.01671,-0.00058,0.03443,0.0*
%
%ADD14ROTATEDRECTD14*%

%ADD15R,0.03543X0.03150*%
G04:AMPARAMS|DCode=16|XSize=35.43mil|YSize=31.5mil|CornerRadius=0mil|HoleSize=0mil|Usage=FLASHONLY|Rotation=300.000|XOffset=0mil|YOffset=0mil|HoleType=Round|Shape=Rectangle|*
%AMROTATEDRECTD16*
4,1,4,-0.02250,0.00747,0.00478,0.02322,0.02250,-0.00747,-0.00478,-0.02322,-0.02250,0.00747,0.0*
%
%ADD16ROTATEDRECTD16*%

G04:AMPARAMS|DCode=17|XSize=35.43mil|YSize=31.5mil|CornerRadius=0mil|HoleSize=0mil|Usage=FLASHONLY|Rotation=60.000|XOffset=0mil|YOffset=0mil|HoleType=Round|Shape=Rectangle|*
%AMROTATEDRECTD17*
4,1,4,0.00478,-0.02322,-0.02250,-0.00747,-0.00478,0.02322,0.02250,0.00747,0.00478,-0.02322,0.0*
%
%ADD17ROTATEDRECTD17*%

%ADD18R,0.03150X0.03543*%
%ADD19C,0.01181*%
%ADD20C,0.01000*%
%ADD21C,0.03937*%
%ADD22C,0.02756*%
%ADD23C,0.01969*%
%ADD24C,0.11811*%
%ADD25C,0.07874*%
%ADD26C,0.06000*%
%ADD27C,0.07087*%
%ADD28C,0.05512*%
%ADD29C,0.12795*%
%ADD30C,0.15748*%
%ADD31C,0.17716*%
%ADD32C,0.11221*%
%ADD33C,0.05000*%
D10*
X-190256Y27461D02*
D03*
X-187106D02*
D03*
X-183957D02*
D03*
X-180807D02*
D03*
X-177657D02*
D03*
X-174508D02*
D03*
X-171358D02*
D03*
X-168209D02*
D03*
X-165059D02*
D03*
X-193406D02*
D03*
X-161909D02*
D03*
Y-19390D02*
D03*
X-193406D02*
D03*
X-165059D02*
D03*
X-168209D02*
D03*
X-171358D02*
D03*
X-174508D02*
D03*
X-177657D02*
D03*
X-180807D02*
D03*
X-183957D02*
D03*
X-187106D02*
D03*
X-190256D02*
D03*
D11*
X-154232Y19783D02*
D03*
Y16634D02*
D03*
Y13484D02*
D03*
Y10335D02*
D03*
Y7185D02*
D03*
Y4035D02*
D03*
Y886D02*
D03*
Y-2264D02*
D03*
Y-5413D02*
D03*
Y-8563D02*
D03*
Y-11713D02*
D03*
X-201083D02*
D03*
Y-8563D02*
D03*
Y-5413D02*
D03*
Y-2264D02*
D03*
Y886D02*
D03*
Y4035D02*
D03*
Y7185D02*
D03*
Y10335D02*
D03*
Y13484D02*
D03*
Y16634D02*
D03*
Y19783D02*
D03*
D12*
X-42103Y301464D02*
D03*
X-30852Y307960D02*
D03*
X-21206Y291253D02*
D03*
X-32458Y284757D02*
D03*
X-68868Y286011D02*
D03*
X-57617Y292507D02*
D03*
X-47971Y275800D02*
D03*
X-59223Y269304D02*
D03*
X-95633Y270558D02*
D03*
X-84382Y277054D02*
D03*
X-74736Y260347D02*
D03*
X-85988Y253851D02*
D03*
X-122398Y255105D02*
D03*
X-111147Y261601D02*
D03*
X-101501Y244895D02*
D03*
X-112752Y238399D02*
D03*
X-149163Y239653D02*
D03*
X-137912Y246149D02*
D03*
X-128266Y229442D02*
D03*
X-139517Y222946D02*
D03*
X-175928Y224200D02*
D03*
X-164677Y230696D02*
D03*
X-155031Y213989D02*
D03*
X-166282Y207493D02*
D03*
X-202693Y208747D02*
D03*
X-191442Y215243D02*
D03*
X-181796Y198536D02*
D03*
X-193047Y192040D02*
D03*
X-229458Y193294D02*
D03*
X-218207Y199790D02*
D03*
X-208561Y183084D02*
D03*
X-219812Y176587D02*
D03*
X-256223Y177842D02*
D03*
X-244971Y184338D02*
D03*
X-235326Y167631D02*
D03*
X-246577Y161135D02*
D03*
X-282988Y162389D02*
D03*
X-271737Y168885D02*
D03*
X-262091Y152178D02*
D03*
X-273342Y145682D02*
D03*
X41574Y-301231D02*
D03*
X30323Y-307727D02*
D03*
X20677Y-291020D02*
D03*
X31929Y-284524D02*
D03*
X68339Y-285778D02*
D03*
X57088Y-292274D02*
D03*
X47442Y-275568D02*
D03*
X58694Y-269072D02*
D03*
X95104Y-270326D02*
D03*
X83853Y-276822D02*
D03*
X74207Y-260115D02*
D03*
X85459Y-253619D02*
D03*
X121869Y-254873D02*
D03*
X110618Y-261369D02*
D03*
X100972Y-244662D02*
D03*
X112224Y-238166D02*
D03*
X148634Y-239420D02*
D03*
X137383Y-245916D02*
D03*
X127737Y-229209D02*
D03*
X138988Y-222713D02*
D03*
X175399Y-223968D02*
D03*
X164148Y-230464D02*
D03*
X154502Y-213757D02*
D03*
X165753Y-207261D02*
D03*
X202164Y-208515D02*
D03*
X190913Y-215011D02*
D03*
X181267Y-198304D02*
D03*
X192518Y-191808D02*
D03*
X228929Y-193062D02*
D03*
X217678Y-199558D02*
D03*
X208032Y-182851D02*
D03*
X219283Y-176355D02*
D03*
X255709Y-177601D02*
D03*
X244457Y-184097D02*
D03*
X234811Y-167390D02*
D03*
X246063Y-160894D02*
D03*
X282397Y-162192D02*
D03*
X271146Y-168688D02*
D03*
X261500Y-151981D02*
D03*
X272752Y-145485D02*
D03*
D13*
X-282382Y114075D02*
D03*
Y127067D02*
D03*
X-263090D02*
D03*
Y114075D02*
D03*
X-282382Y83169D02*
D03*
Y96161D02*
D03*
X-263090D02*
D03*
Y83169D02*
D03*
X-282382Y52264D02*
D03*
Y65256D02*
D03*
X-263090D02*
D03*
Y52264D02*
D03*
X-282382Y21358D02*
D03*
Y34350D02*
D03*
X-263090D02*
D03*
Y21358D02*
D03*
X-282382Y-9547D02*
D03*
Y3445D02*
D03*
X-263090D02*
D03*
Y-9547D02*
D03*
X-282382Y-40453D02*
D03*
Y-27461D02*
D03*
X-263090D02*
D03*
Y-40453D02*
D03*
X-282382Y-71358D02*
D03*
Y-58366D02*
D03*
X-263090D02*
D03*
Y-71358D02*
D03*
X-282382Y-102264D02*
D03*
Y-89272D02*
D03*
X-263090D02*
D03*
Y-102264D02*
D03*
X-282382Y-133169D02*
D03*
Y-120177D02*
D03*
X-263090D02*
D03*
Y-133169D02*
D03*
X-282382Y-164075D02*
D03*
Y-151083D02*
D03*
X-263090D02*
D03*
Y-164075D02*
D03*
X281496Y-114764D02*
D03*
Y-127756D02*
D03*
X262205D02*
D03*
Y-114764D02*
D03*
X281496Y-83858D02*
D03*
Y-96850D02*
D03*
X262205D02*
D03*
Y-83858D02*
D03*
X281496Y-52953D02*
D03*
Y-65945D02*
D03*
X262205D02*
D03*
Y-52953D02*
D03*
X281496Y-22047D02*
D03*
Y-35039D02*
D03*
X262205D02*
D03*
Y-22047D02*
D03*
X281496Y8858D02*
D03*
Y-4134D02*
D03*
X262205D02*
D03*
Y8858D02*
D03*
X281496Y39764D02*
D03*
Y26772D02*
D03*
X262205D02*
D03*
Y39764D02*
D03*
X281496Y70669D02*
D03*
Y57677D02*
D03*
X262205D02*
D03*
Y70669D02*
D03*
X281496Y101575D02*
D03*
Y88583D02*
D03*
X262205D02*
D03*
Y101575D02*
D03*
X281496Y132480D02*
D03*
Y119488D02*
D03*
X262205D02*
D03*
Y132480D02*
D03*
X281496Y163386D02*
D03*
Y150394D02*
D03*
X262205D02*
D03*
Y163386D02*
D03*
D14*
X-240377Y-187094D02*
D03*
X-251628Y-180597D02*
D03*
X-241983Y-163891D02*
D03*
X-230731Y-170387D02*
D03*
X-213612Y-202546D02*
D03*
X-224864Y-196050D02*
D03*
X-215218Y-179343D02*
D03*
X-203966Y-185839D02*
D03*
X-186847Y-217999D02*
D03*
X-198099Y-211503D02*
D03*
X-188453Y-194796D02*
D03*
X-177201Y-201292D02*
D03*
X-160082Y-233452D02*
D03*
X-171334Y-226956D02*
D03*
X-161688Y-210249D02*
D03*
X-150436Y-216745D02*
D03*
X-133317Y-248905D02*
D03*
X-144569Y-242408D02*
D03*
X-134923Y-225702D02*
D03*
X-123671Y-232198D02*
D03*
X-106552Y-264357D02*
D03*
X-117804Y-257861D02*
D03*
X-108158Y-241155D02*
D03*
X-96907Y-247651D02*
D03*
X-79787Y-279810D02*
D03*
X-91039Y-273314D02*
D03*
X-81393Y-256607D02*
D03*
X-70142Y-263103D02*
D03*
X-53022Y-295263D02*
D03*
X-64274Y-288767D02*
D03*
X-54628Y-272060D02*
D03*
X-43377Y-278556D02*
D03*
X-26257Y-310716D02*
D03*
X-37509Y-304220D02*
D03*
X-27863Y-287513D02*
D03*
X-16612Y-294009D02*
D03*
X508Y-326168D02*
D03*
X-10744Y-319672D02*
D03*
X-1098Y-302965D02*
D03*
X10153Y-309462D02*
D03*
X240177Y186744D02*
D03*
X251428Y180247D02*
D03*
X241782Y163541D02*
D03*
X230531Y170037D02*
D03*
X213326Y202245D02*
D03*
X224578Y195749D02*
D03*
X214932Y179043D02*
D03*
X203681Y185539D02*
D03*
X186561Y217698D02*
D03*
X197813Y211202D02*
D03*
X188167Y194495D02*
D03*
X176916Y200992D02*
D03*
X159882Y233102D02*
D03*
X171133Y226606D02*
D03*
X161487Y209899D02*
D03*
X150236Y216395D02*
D03*
X133202Y248505D02*
D03*
X144453Y242009D02*
D03*
X134808Y225303D02*
D03*
X123556Y231799D02*
D03*
X106352Y264007D02*
D03*
X117603Y257511D02*
D03*
X107957Y240805D02*
D03*
X96706Y247301D02*
D03*
X79553Y279480D02*
D03*
X90804Y272984D02*
D03*
X81159Y256277D02*
D03*
X69907Y262773D02*
D03*
X52702Y294982D02*
D03*
X63954Y288486D02*
D03*
X54308Y271779D02*
D03*
X43057Y278275D02*
D03*
X25957Y310423D02*
D03*
X37209Y303927D02*
D03*
X27563Y287220D02*
D03*
X16312Y293716D02*
D03*
X-803Y325873D02*
D03*
X10449Y319377D02*
D03*
X803Y302670D02*
D03*
X-10449Y309166D02*
D03*
D15*
X-116240Y26870D02*
D03*
X-109153D02*
D03*
X-92323Y26870D02*
D03*
X-99410D02*
D03*
X-173031Y53642D02*
D03*
X-165945D02*
D03*
X-157480D02*
D03*
X-150394D02*
D03*
X-269035Y134055D02*
D03*
X-276122D02*
D03*
X-269035Y103150D02*
D03*
X-276122D02*
D03*
X-269035Y72244D02*
D03*
X-276122D02*
D03*
X-269035Y41339D02*
D03*
X-276122D02*
D03*
X-269035Y10433D02*
D03*
X-276122D02*
D03*
X-269035Y-20472D02*
D03*
X-276122D02*
D03*
X-269035Y-51378D02*
D03*
X-276122D02*
D03*
X-269035Y-82284D02*
D03*
X-276122D02*
D03*
X-269035Y-113189D02*
D03*
X-276122D02*
D03*
X-269035Y-144095D02*
D03*
X-276122D02*
D03*
X268307Y-135020D02*
D03*
X275394D02*
D03*
X268307Y-104114D02*
D03*
X275394D02*
D03*
X268307Y-73209D02*
D03*
X275394D02*
D03*
X268307Y-42303D02*
D03*
X275394D02*
D03*
X268307Y-11398D02*
D03*
X275394D02*
D03*
X268307Y19508D02*
D03*
X275394D02*
D03*
X268307Y50413D02*
D03*
X275394D02*
D03*
X268307Y81319D02*
D03*
X275394D02*
D03*
X268307Y112224D02*
D03*
X275394D02*
D03*
X268307Y143130D02*
D03*
X275394D02*
D03*
X-157480Y42913D02*
D03*
X-150394D02*
D03*
X-172457Y-30400D02*
D03*
X-179543D02*
D03*
D16*
X-18077Y299810D02*
D03*
X-21621Y305947D02*
D03*
X-44842Y284357D02*
D03*
X-48386Y290495D02*
D03*
X-71607Y268905D02*
D03*
X-75151Y275042D02*
D03*
X-98372Y253452D02*
D03*
X-101916Y259589D02*
D03*
X-125137Y237999D02*
D03*
X-128681Y244136D02*
D03*
X-151902Y222546D02*
D03*
X-155446Y228684D02*
D03*
X-178667Y207094D02*
D03*
X-182211Y213231D02*
D03*
X-205432Y191641D02*
D03*
X-208975Y197778D02*
D03*
X-232197Y176188D02*
D03*
X-235740Y182325D02*
D03*
X-258962Y160735D02*
D03*
X-262505Y166873D02*
D03*
X17557Y-299755D02*
D03*
X21100Y-305892D02*
D03*
X44219Y-284252D02*
D03*
X47762Y-290390D02*
D03*
X70984Y-268800D02*
D03*
X74527Y-274937D02*
D03*
X97749Y-253347D02*
D03*
X101292Y-259484D02*
D03*
X124514Y-237894D02*
D03*
X128057Y-244031D02*
D03*
X151279Y-222441D02*
D03*
X154822Y-228578D02*
D03*
X178044Y-206989D02*
D03*
X181587Y-213126D02*
D03*
X204808Y-191536D02*
D03*
X208352Y-197673D02*
D03*
X231777Y-176189D02*
D03*
X235320Y-182326D02*
D03*
X258257Y-160678D02*
D03*
X261800Y-166815D02*
D03*
D17*
X-250990Y-165555D02*
D03*
X-254534Y-171692D02*
D03*
X-224225Y-181008D02*
D03*
X-227768Y-187145D02*
D03*
X-197460Y-196460D02*
D03*
X-201004Y-202598D02*
D03*
X-170695Y-211913D02*
D03*
X-174239Y-218050D02*
D03*
X-143930Y-227366D02*
D03*
X-147474Y-233503D02*
D03*
X-117165Y-242819D02*
D03*
X-120709Y-248956D02*
D03*
X-90400Y-258271D02*
D03*
X-93944Y-264409D02*
D03*
X-63635Y-273724D02*
D03*
X-67179Y-279861D02*
D03*
X-36871Y-289177D02*
D03*
X-40414Y-295314D02*
D03*
X-10106Y-304630D02*
D03*
X-13649Y-310767D02*
D03*
X251632Y165246D02*
D03*
X255175Y171383D02*
D03*
X224867Y180699D02*
D03*
X228410Y186836D02*
D03*
X198017Y196201D02*
D03*
X201560Y202338D02*
D03*
X171252Y211653D02*
D03*
X174795Y217791D02*
D03*
X144401Y227155D02*
D03*
X147945Y233293D02*
D03*
X117551Y242657D02*
D03*
X121095Y248795D02*
D03*
X90786Y258110D02*
D03*
X94330Y264247D02*
D03*
X64004Y273573D02*
D03*
X67548Y279710D02*
D03*
X37239Y289026D02*
D03*
X40783Y295163D02*
D03*
X10676Y304362D02*
D03*
X14219Y310499D02*
D03*
D18*
X-137900Y7043D02*
D03*
Y-43D02*
D03*
X-144000Y7143D02*
D03*
Y57D02*
D03*
X-222342Y-49803D02*
D03*
Y-42717D02*
D03*
X-213400Y6243D02*
D03*
Y-843D02*
D03*
X-246949Y-49803D02*
D03*
Y-42717D02*
D03*
X-226800Y-13243D02*
D03*
Y-6157D02*
D03*
X-226800Y6243D02*
D03*
Y-843D02*
D03*
D19*
X-172457Y-34630D02*
X-169783Y-37303D01*
X-172457Y-34630D02*
Y-26658D01*
X-165376Y39748D02*
X-145882D01*
X-174508Y30616D02*
X-165376Y39748D01*
X-174508Y27461D02*
Y30616D01*
X-135925Y-6594D02*
Y-2018D01*
X-137349Y-6594D02*
X-135925D01*
X-144000Y57D02*
X-137349Y-6594D01*
X-183465Y-26378D02*
X-179528D01*
X-187500Y-30413D02*
X-183465Y-26378D01*
X-121697Y4865D02*
Y11361D01*
Y4865D02*
X-103742Y-13091D01*
X-143726Y33390D02*
X-121697Y11361D01*
X-103742Y-13091D02*
X-21654D01*
X-281431Y-167021D02*
X-279634Y-168818D01*
X-260761D01*
X-21161Y-13091D02*
X-3551Y-30700D01*
X-158484Y33390D02*
X-143726D01*
X-6489Y248917D02*
Y281811D01*
X-20895Y291364D02*
X-10024Y296568D01*
X-20457Y314973D02*
X-4807Y324324D01*
X-492Y325984D01*
X-162279Y33390D02*
X-158484D01*
X-165059Y30610D02*
X-162279Y33390D01*
X-165059Y27461D02*
Y30610D01*
X-145882Y39748D02*
X-142717Y42913D01*
X-154232Y7185D02*
X-138042D01*
X-147979Y4035D02*
X-144000Y57D01*
X-154232Y4035D02*
X-147979D01*
X-137900Y-43D02*
X-135925Y-2018D01*
X-213400Y-8450D02*
X-213386Y-8465D01*
X-211192Y4035D02*
X-201083D01*
X-213400Y6243D02*
X-211192Y4035D01*
X-213400Y-843D02*
X-211671Y886D01*
X-201083D01*
X-174508Y-24606D02*
X-172457Y-26658D01*
X-174508Y-24606D02*
Y-19390D01*
X-179543Y-30400D02*
Y-26394D01*
X-177657Y-24508D02*
Y-19390D01*
X-179528Y-26378D02*
X-177657Y-24508D01*
X-262836Y136057D02*
X-262734Y126985D01*
X-266743Y139160D02*
X-262836Y136057D01*
X-276747Y140885D02*
X-273680Y139251D01*
X-266743Y139160D01*
X-286183Y157229D02*
X-285525Y159684D01*
X-286183Y157229D02*
X-276747Y140885D01*
X-285525Y159684D02*
X-282457Y161456D01*
X-249624Y-159185D02*
X-241717Y-163633D01*
X-254265Y-161017D02*
X-249624Y-159185D01*
X-260761Y-168818D02*
X-257812Y-166979D01*
X-254265Y-161017D01*
X-281431Y-163478D02*
X-281431Y-167021D01*
X12872Y-295645D02*
X20677Y-291020D01*
X12138Y-300580D02*
X12872Y-295645D01*
X15528Y-306633D02*
X15646Y-310106D01*
X12138Y-300580D02*
X15528Y-306633D01*
X3755Y-327108D02*
X6210Y-326450D01*
X15646Y-310106D01*
X686Y-325336D02*
X3755Y-327108D01*
X262205Y-127756D02*
X262307Y-136828D01*
X266214Y-139931D01*
X273150Y-140022D02*
X276218Y-141656D01*
X266214Y-139931D02*
X273150Y-140022D01*
X284996Y-160455D02*
X285654Y-158000D01*
X276218Y-141656D02*
X285654Y-158000D01*
X281927Y-162226D02*
X284996Y-160455D01*
X241782Y163541D02*
X249690Y159093D01*
X254331Y160925D01*
X257878Y166887D02*
X260827Y168726D01*
X254331Y160925D02*
X257878Y166887D01*
X279699Y168726D02*
X281496Y166929D01*
X260827Y168726D02*
X279699D01*
X281496Y163386D02*
Y166929D01*
X-221703Y-175410D02*
X-214781Y-179407D01*
X-239972Y-187259D02*
X-236095Y-189498D01*
X-234099Y-188963D01*
X-227110Y-176859D01*
X-221703Y-175410D01*
X-194938Y-190863D02*
X-188016Y-194860D01*
X-213208Y-202712D02*
X-209330Y-204950D01*
X-207334Y-204416D01*
X-200345Y-192312D01*
X-194938Y-190863D01*
X-168173Y-206316D02*
X-161251Y-210312D01*
X-186442Y-218164D02*
X-182565Y-220403D01*
X-180569Y-219868D01*
X-173580Y-207764D01*
X-168173Y-206316D01*
X-141408Y-221768D02*
X-134486Y-225765D01*
X-159678Y-233617D02*
X-155800Y-235856D01*
X-153804Y-235321D01*
X-146816Y-223217D01*
X-141408Y-221768D01*
X-114643Y-237221D02*
X-107721Y-241218D01*
X-132913Y-249070D02*
X-129035Y-251309D01*
X-127039Y-250774D01*
X-120051Y-238670D01*
X-114643Y-237221D01*
X-88352Y-252476D02*
X-81429Y-256473D01*
X-106621Y-264325D02*
X-102743Y-266564D01*
X-100747Y-266029D01*
X-93759Y-253925D01*
X-88352Y-252476D01*
X-61587Y-267929D02*
X-54664Y-271926D01*
X-79856Y-279778D02*
X-75978Y-282016D01*
X-73982Y-281482D01*
X-66994Y-269378D01*
X-61587Y-267929D01*
X-34822Y-283382D02*
X-27899Y-287378D01*
X-53091Y-295231D02*
X-49213Y-297469D01*
X-47217Y-296934D01*
X-40229Y-284830D01*
X-34822Y-283382D01*
X-8057Y-298834D02*
X-1134Y-302831D01*
X-26326Y-310683D02*
X-22448Y-312922D01*
X-20452Y-312387D01*
X-13464Y-300283D01*
X-8057Y-298834D01*
X-262927Y95771D02*
Y103764D01*
X-282323Y109184D02*
Y113661D01*
Y109184D02*
X-280861Y107723D01*
X-266885D01*
X-262927Y103764D01*
Y64865D02*
Y72859D01*
X-282323Y78278D02*
Y82756D01*
Y78278D02*
X-280861Y76817D01*
X-266885D01*
X-262927Y72859D01*
Y33960D02*
Y41953D01*
X-282323Y47373D02*
Y51850D01*
Y47373D02*
X-280861Y45911D01*
X-266885D01*
X-262927Y41953D01*
Y3054D02*
Y11048D01*
X-282323Y16467D02*
Y20945D01*
Y16467D02*
X-280861Y15006D01*
X-266885D01*
X-262927Y11048D01*
Y-27851D02*
Y-19858D01*
X-282323Y-14438D02*
Y-9961D01*
Y-14438D02*
X-280861Y-15900D01*
X-266885D01*
X-262927Y-19858D01*
Y-58757D02*
Y-50763D01*
X-282323Y-45344D02*
Y-40866D01*
Y-45344D02*
X-280861Y-46805D01*
X-266885D01*
X-262927Y-50763D01*
Y-89662D02*
Y-81669D01*
X-282323Y-76249D02*
Y-71772D01*
Y-76249D02*
X-280861Y-77710D01*
X-266885D01*
X-262927Y-81669D01*
Y-120568D02*
Y-112574D01*
X-282323Y-107155D02*
Y-102677D01*
Y-107155D02*
X-280861Y-108616D01*
X-266885D01*
X-262927Y-112574D01*
Y-151473D02*
Y-143480D01*
X-282323Y-138060D02*
Y-133583D01*
Y-138060D02*
X-280861Y-139522D01*
X-266885D01*
X-262927Y-143480D01*
X40735Y-279319D02*
X47657Y-275323D01*
X41862Y-301065D02*
X45739Y-298827D01*
X46274Y-296830D01*
X39286Y-284727D02*
X46274Y-296830D01*
X39286Y-284727D02*
X40735Y-279319D01*
X67397Y-263817D02*
X74320Y-259820D01*
X68524Y-285563D02*
X72402Y-283324D01*
X72936Y-281328D01*
X65948Y-269224D02*
X72936Y-281328D01*
X65948Y-269224D02*
X67397Y-263817D01*
X94162Y-248364D02*
X101084Y-244367D01*
X95289Y-270110D02*
X99167Y-267871D01*
X99701Y-265875D01*
X92713Y-253771D02*
X99701Y-265875D01*
X92713Y-253771D02*
X94162Y-248364D01*
X120927Y-232911D02*
X127849Y-228914D01*
X122054Y-254657D02*
X125932Y-252418D01*
X126466Y-250422D01*
X119478Y-238318D02*
X126466Y-250422D01*
X119478Y-238318D02*
X120927Y-232911D01*
X147692Y-217458D02*
X154614Y-213462D01*
X148819Y-239205D02*
X152697Y-236966D01*
X153231Y-234969D01*
X146243Y-222866D02*
X153231Y-234969D01*
X146243Y-222866D02*
X147692Y-217458D01*
X174457Y-202006D02*
X181379Y-198009D01*
X175584Y-223752D02*
X179461Y-221513D01*
X179996Y-219517D01*
X173008Y-207413D02*
X179996Y-219517D01*
X173008Y-207413D02*
X174457Y-202006D01*
X201222Y-186553D02*
X208144Y-182556D01*
X202349Y-208299D02*
X206226Y-206060D01*
X206761Y-204064D01*
X199773Y-191960D02*
X206761Y-204064D01*
X199773Y-191960D02*
X201222Y-186553D01*
X227987Y-171100D02*
X234909Y-167104D01*
X229114Y-192846D02*
X232991Y-190608D01*
X233526Y-188611D01*
X226538Y-176507D02*
X233526Y-188611D01*
X226538Y-176507D02*
X227987Y-171100D01*
X254955Y-155753D02*
X261877Y-151756D01*
X256082Y-177499D02*
X259959Y-175260D01*
X260494Y-173264D01*
X253506Y-161160D02*
X260494Y-173264D01*
X253506Y-161160D02*
X254955Y-155753D01*
X262198Y-104729D02*
Y-96735D01*
X281594Y-114626D02*
Y-110149D01*
X280133Y-108687D02*
X281594Y-110149D01*
X266157Y-108687D02*
X280133D01*
X262198Y-104729D02*
X266157Y-108687D01*
X262198Y-73823D02*
Y-65830D01*
X281594Y-83720D02*
Y-79243D01*
X280133Y-77782D02*
X281594Y-79243D01*
X266157Y-77782D02*
X280133D01*
X262198Y-73823D02*
X266157Y-77782D01*
X262198Y-42918D02*
Y-34924D01*
X281594Y-52815D02*
Y-48337D01*
X280133Y-46876D02*
X281594Y-48337D01*
X266157Y-46876D02*
X280133D01*
X262198Y-42918D02*
X266157Y-46876D01*
X262198Y-12012D02*
Y-4019D01*
X281594Y-21910D02*
Y-17432D01*
X280133Y-15971D02*
X281594Y-17432D01*
X266157Y-15971D02*
X280133D01*
X262198Y-12012D02*
X266157Y-15971D01*
X262198Y18893D02*
Y26887D01*
X281594Y8996D02*
Y13474D01*
X280133Y14935D02*
X281594Y13474D01*
X266157Y14935D02*
X280133D01*
X262198Y18893D02*
X266157Y14935D01*
X262198Y49799D02*
Y57792D01*
X281594Y39902D02*
Y44379D01*
X280133Y45840D02*
X281594Y44379D01*
X266157Y45840D02*
X280133D01*
X262198Y49799D02*
X266157Y45840D01*
X262198Y80704D02*
Y88698D01*
X281594Y70807D02*
Y75285D01*
X280133Y76746D02*
X281594Y75285D01*
X266157Y76746D02*
X280133D01*
X262198Y80704D02*
X266157Y76746D01*
X262198Y111610D02*
Y119603D01*
X281594Y101713D02*
Y106190D01*
X280133Y107651D02*
X281594Y106190D01*
X266157Y107651D02*
X280133D01*
X262198Y111610D02*
X266157Y107651D01*
X262198Y142515D02*
Y150509D01*
X281594Y132618D02*
Y137096D01*
X280133Y138557D02*
X281594Y137096D01*
X266157Y138557D02*
X280133D01*
X262198Y142515D02*
X266157Y138557D01*
X-48597Y275119D02*
X-41675Y279115D01*
X-40226Y284523D01*
X-47214Y296626D02*
X-40226Y284523D01*
X-47214Y296626D02*
X-46679Y298623D01*
X-42801Y300862D01*
X-75362Y259666D02*
X-68439Y263663D01*
X-66991Y269070D01*
X-73979Y281174D02*
X-66991Y269070D01*
X-73979Y281174D02*
X-73444Y283170D01*
X-69566Y285409D01*
X-102127Y244213D02*
X-95204Y248210D01*
X-93756Y253617D01*
X-100744Y265721D02*
X-93756Y253617D01*
X-100744Y265721D02*
X-100209Y267717D01*
X-96331Y269956D01*
X-128892Y228760D02*
X-121969Y232757D01*
X-120520Y238164D01*
X-127509Y250268D02*
X-120520Y238164D01*
X-127509Y250268D02*
X-126974Y252264D01*
X-123096Y254503D01*
X-155657Y213308D02*
X-148734Y217304D01*
X-147285Y222712D01*
X-154274Y234816D02*
X-147285Y222712D01*
X-154274Y234816D02*
X-153739Y236812D01*
X-149861Y239051D01*
X-182422Y197855D02*
X-175499Y201852D01*
X-174050Y207259D01*
X-181039Y219363D02*
X-174050Y207259D01*
X-181039Y219363D02*
X-180504Y221359D01*
X-176626Y223598D01*
X-209187Y182402D02*
X-202264Y186399D01*
X-200815Y191806D01*
X-207804Y203910D02*
X-200815Y191806D01*
X-207804Y203910D02*
X-207269Y205906D01*
X-235952Y166949D02*
X-229029Y170946D01*
X-227580Y176353D01*
X-234569Y188457D02*
X-227580Y176353D01*
X-234569Y188457D02*
X-234034Y190453D01*
X-230156Y192692D01*
X-262717Y151497D02*
X-255794Y155493D01*
X-254345Y160900D01*
X-261333Y173004D02*
X-254345Y160900D01*
X-261333Y173004D02*
X-260799Y175001D01*
X-256921Y177239D01*
X215422Y179098D02*
X222345Y175101D01*
X227752Y176550D01*
X234740Y188654D01*
X236736Y189189D01*
X240614Y186950D01*
X215235Y179325D02*
X222158Y175328D01*
X227565Y176777D01*
X234553Y188881D01*
X236549Y189416D01*
X240427Y187177D01*
X188385Y194827D02*
X195307Y190830D01*
X200715Y192279D01*
X207703Y204383D01*
X209699Y204918D01*
X213577Y202679D01*
X161620Y210280D02*
X168542Y206283D01*
X173950Y207732D01*
X180938Y219836D01*
X182934Y220371D01*
X186812Y218132D01*
X134891Y225598D02*
X141814Y221601D01*
X147221Y223050D01*
X154209Y235154D01*
X156205Y235689D01*
X160083Y233450D01*
X108211Y241002D02*
X115134Y237005D01*
X120541Y238454D01*
X127529Y250558D01*
X129525Y251093D01*
X133403Y248854D01*
X865Y302743D02*
X7788Y298747D01*
X13195Y300196D01*
X20183Y312299D01*
X22179Y312834D01*
X26057Y310595D01*
X81361Y256504D02*
X88284Y252507D01*
X93691Y253956D01*
X100679Y266060D01*
X102675Y266595D01*
X106553Y264356D01*
X54513Y271891D02*
X61435Y267894D01*
X66843Y269343D01*
X73831Y281447D01*
X75827Y281982D01*
X79705Y279743D01*
X48977Y297484D02*
X52854Y295245D01*
X46981Y296949D02*
X48977Y297484D01*
X39992Y284845D02*
X46981Y296949D01*
X34585Y283396D02*
X39992Y284845D01*
X27663Y287393D02*
X34585Y283396D01*
X-213400Y6243D02*
Y10616D01*
X-212008Y12008D01*
X-208296D01*
X-227494Y16634D02*
X-201083D01*
X-227461Y19783D02*
X-201083D01*
X-218701Y126279D02*
X-6489Y248917D01*
X-231299Y23622D02*
Y27559D01*
X-218701Y40157D01*
Y126279D01*
X-231299Y23622D02*
X-227461Y19783D01*
X-16689Y249563D02*
Y276011D01*
X-224213Y129626D02*
X-16689Y249563D01*
X-233465Y22604D02*
X-227494Y16634D01*
X-224213Y37992D02*
Y129626D01*
X-233465Y22604D02*
Y28740D01*
X-224213Y37992D01*
X-207269Y205906D02*
X-203391Y208145D01*
D20*
X-160335Y-32111D02*
Y-28517D01*
X-162080Y-33856D02*
X-160335Y-32111D01*
X-165059Y-23793D02*
X-160335Y-28517D01*
X-162080Y-48400D02*
Y-33856D01*
X-179232Y32900D02*
Y38681D01*
X-183957Y27461D02*
Y48550D01*
X-187106Y27461D02*
Y48228D01*
X-183957Y48550D02*
X-175254Y57252D01*
X-187106Y48228D02*
X-176083Y59252D01*
X-245452Y-36200D02*
X-241096D01*
X-246949Y-37697D02*
X-245452Y-36200D01*
X-246949Y-42717D02*
Y-37697D01*
X-223228Y-4553D02*
Y-2756D01*
Y-4553D02*
X-215317Y-12465D01*
X-225141Y-843D02*
X-223228Y-2756D01*
X-166043Y42913D02*
X-157480D01*
X-177657Y31299D02*
X-166043Y42913D01*
X-177657Y27461D02*
Y31299D01*
X-164980Y37480D02*
X-156790D01*
X-171358Y31102D02*
X-164980Y37480D01*
X-171358Y27461D02*
Y31102D01*
X-173031Y39049D02*
Y53642D01*
X-180807Y31273D02*
X-173031Y39049D01*
X-180807Y27461D02*
Y31273D01*
X-215826Y-36200D02*
X-206476D01*
X-232487Y-31700D02*
X-208865D01*
X-236987Y-36200D02*
X-232487Y-31700D01*
X-241096Y-36200D02*
X-236987D01*
X-208865Y-31700D02*
X-206988Y-29823D01*
X-89521Y39400D02*
X-80610Y30489D01*
Y1969D02*
Y30489D01*
Y1969D02*
X-71642Y-7000D01*
X-88975Y-61094D02*
X-80739Y-52858D01*
X-89803Y-59095D02*
X-81567Y-50858D01*
X-90632Y-57095D02*
X-82395Y-48858D01*
X-93945Y-49095D02*
X-85410Y-40559D01*
X-93117Y-51095D02*
X-84581Y-42559D01*
X-92288Y-53095D02*
X-83753Y-44559D01*
X-91460Y-55094D02*
X-82925Y-46559D01*
X-82395Y-48858D02*
X158917D01*
X-81567Y-50858D02*
X159746D01*
X-80739Y-52858D02*
X171945D01*
X172244Y-52559D01*
X-72465Y-40559D02*
X-62606Y-30700D01*
X-85410Y-40559D02*
X-72465D01*
X14117Y-42559D02*
X25976Y-30700D01*
X-84581Y-42559D02*
X14117D01*
X33984Y-44559D02*
X42913Y-35630D01*
X-83753Y-44559D02*
X33984D01*
X34813Y-46559D02*
X44913Y-36458D01*
X-82925Y-46559D02*
X34813D01*
X-193500Y-32899D02*
X-165304Y-61094D01*
X-193500Y-32899D02*
Y-27928D01*
X-189950Y-24378D01*
X-187450D01*
X-187106Y-24034D01*
X-193406Y-23130D02*
Y-19390D01*
X-206476Y-36200D02*
X-193406Y-23130D01*
X-228104Y-36200D02*
X-206476D01*
X-187106Y-24034D02*
Y-19390D01*
X-191500Y-32070D02*
Y-28756D01*
X-189121Y-26378D01*
X-186421D02*
X-183957Y-23914D01*
X-189121Y-26378D02*
X-186421D01*
X-183957Y-23914D02*
Y-19390D01*
X-134973Y-49095D02*
X-93945D01*
X-148237Y-35831D02*
X-134973Y-49095D01*
X-135802Y-51095D02*
X-93117D01*
X-150237Y-36659D02*
X-135802Y-51095D01*
X-151728Y-53095D02*
X-92288D01*
X-158080Y-46743D02*
X-151728Y-53095D01*
X-152557Y-55094D02*
X-91460D01*
X-160080Y-47572D02*
X-152557Y-55094D01*
X-153385Y-57095D02*
X-90632D01*
X-162080Y-48400D02*
X-153385Y-57095D01*
X14684Y39400D02*
Y47225D01*
X0Y34558D02*
X4842Y39400D01*
X-154232Y-2264D02*
X-150715D01*
X-131791Y689D02*
Y7185D01*
Y689D02*
X-107839Y-23263D01*
X-135021Y10415D02*
X-131791Y7185D01*
X-129791Y1517D02*
Y8014D01*
Y1517D02*
X-107011Y-21263D01*
X-127787Y2342D02*
X-106183Y-19263D01*
X-127787Y2342D02*
Y8838D01*
X-125787Y3170D02*
Y9666D01*
Y3170D02*
X-105354Y-17263D01*
X-123787Y3999D02*
X-104526Y-15263D01*
X-123787Y3999D02*
Y10495D01*
X-102876Y-11000D02*
X-13409D01*
X-119606Y5731D02*
X-102876Y-11000D01*
X-119606Y5731D02*
Y12227D01*
X-117606Y6559D02*
Y13055D01*
Y6559D02*
X-102047Y-9000D01*
X-5566D01*
X-135262Y13484D02*
X-129791Y8014D01*
X-135583Y16634D02*
X-127787Y8838D01*
X-135905Y19783D02*
X-125787Y9666D01*
X-144592Y31299D02*
X-123787Y10495D01*
X-142860Y35480D02*
X-119606Y12227D01*
X-142032Y37480D02*
X-117606Y13055D01*
X-107839Y-23263D02*
X-60201D01*
X-107011Y-21263D02*
X-52358D01*
X-106183Y-19263D02*
X-44516D01*
X-105354Y-17263D02*
X-36673D01*
X-104526Y-15263D02*
X-28831D01*
X-150297Y886D02*
X-124148Y-25263D01*
X-87728D01*
X-161909Y-24114D02*
X-158169Y-27854D01*
Y-32774D02*
Y-27854D01*
X-160080Y-34684D02*
X-158169Y-32774D01*
X-160080Y-47572D02*
Y-34684D01*
X-158080Y-46743D02*
Y-35512D01*
X-150237Y-36659D02*
Y-30498D01*
X-148237Y-35831D02*
Y-31327D01*
X-158080Y-35512D02*
X-145437Y-22870D01*
X-154232Y886D02*
X-150297D01*
X-161909Y-24114D02*
Y-19390D01*
X-206988Y-29823D02*
Y-15354D01*
X-216146Y-14465D02*
X-210901D01*
X-205535Y-9099D01*
X-215317Y-12465D02*
X-211729D01*
X-207579Y-8314D01*
X-206988Y-15354D02*
X-203346Y-11713D01*
X-60201Y-23263D02*
X-52764Y-30700D01*
X-71642Y-7000D02*
X24716D01*
X42913Y-25197D01*
X-63602Y-5000D02*
X25545D01*
X44913Y-24368D01*
X-52358Y-21263D02*
X-42921Y-30700D01*
X-5566Y-9000D02*
X16134Y-30700D01*
X-154232Y13484D02*
X-135262D01*
X-154232Y16634D02*
X-135583D01*
X-154232Y19783D02*
X-135905D01*
X-159350Y31299D02*
X-144592D01*
X-157618Y35480D02*
X-142860D01*
X-156790Y37480D02*
X-142032D01*
X-87728Y-25263D02*
X-82291Y-30700D01*
X44913Y-36458D02*
Y-24368D01*
X42913Y-35630D02*
Y-25197D01*
X-165059Y-23793D02*
Y-19390D01*
X-150237Y-30498D02*
X-143437Y-23698D01*
X-148237Y-31327D02*
X-141437Y-24527D01*
X-163732Y35480D02*
X-157618D01*
X-168209Y31004D02*
X-163732Y35480D01*
X-168209Y27461D02*
Y31004D01*
X-13409Y-11000D02*
X6291Y-30700D01*
X-160925Y31299D02*
X-159350D01*
X-28831Y-15263D02*
X-13394Y-30700D01*
X-161909Y30315D02*
X-160925Y31299D01*
X-161909Y27461D02*
Y30315D01*
X-36673Y-17263D02*
X-23236Y-30700D01*
X-44516Y-19263D02*
X-33079Y-30700D01*
X-154232Y10415D02*
X-135021D01*
X-205535Y-9099D02*
Y-6957D01*
X-207579Y-8314D02*
Y-5851D01*
X-224453Y-6157D02*
X-216146Y-14465D01*
X-226800Y-6157D02*
X-224453D01*
X-226800Y-843D02*
X-225141D01*
X-203991Y-2264D02*
X-201083D01*
X-207579Y-5851D02*
X-203991Y-2264D01*
X-203346Y-11713D02*
X-201083D01*
X-203991Y-5413D02*
X-201083D01*
X-205535Y-6957D02*
X-203991Y-5413D01*
X-222342Y-42717D02*
X-215826Y-36200D01*
X142800Y-33579D02*
X156181Y-20198D01*
Y37008D01*
X-154232Y-11713D02*
X-150492D01*
X-154098Y-8698D02*
X-150357D01*
X-154232Y-5413D02*
X-150394D01*
X-145437Y-22870D02*
Y-16768D01*
X-150492Y-11713D02*
X-145437Y-16768D01*
X-143437Y-23698D02*
Y-15618D01*
X-150357Y-8698D02*
X-143437Y-15618D01*
X-141437Y-24527D02*
Y-14370D01*
X-150394Y-5413D02*
X-141437Y-14370D01*
X-193406Y27461D02*
Y30709D01*
X-190256Y27461D02*
Y30610D01*
X-239800Y-13046D02*
X-232911Y-6157D01*
X-226800D01*
X-232711Y-843D02*
X-226800D01*
X-239800Y6246D02*
X-232711Y-843D01*
X-168209Y-27657D02*
Y-19390D01*
Y-27657D02*
X-165551Y-30315D01*
X0Y13780D02*
Y34558D01*
X-194390Y31693D02*
X-193406Y30709D01*
X-193339Y33693D02*
X-190256Y30610D01*
X-176083Y59252D02*
X133937D01*
X-79679Y39400D02*
X-71063Y30784D01*
Y2461D02*
X-63602Y-5000D01*
X-71063Y2461D02*
Y30784D01*
X-165304Y-61094D02*
X-88975D01*
X-191500Y-32070D02*
X-164476Y-59095D01*
X-89803D01*
X-150715Y-2264D02*
X-121752Y-31227D01*
Y-42126D02*
Y-31227D01*
X-211417Y31693D02*
X-194390D01*
X133937Y59252D02*
X156181Y37008D01*
X-175254Y57252D02*
X4657D01*
X14684Y47225D01*
X158917Y-48858D02*
X213878Y6102D01*
Y16437D01*
X159746Y-50858D02*
X230413Y19809D01*
Y53051D01*
X-221063Y30512D02*
X-217882Y33693D01*
X-193339D01*
X-227264Y25591D02*
X-217520D01*
X-211417Y31693D01*
D21*
X-256046Y145177D02*
X-256046Y147244D01*
X-256058Y104232D02*
X-256046Y145177D01*
X-256046Y147244D02*
X-252768Y149310D01*
X-254232Y-148685D02*
X-221151Y-167797D01*
X-255994Y-147667D02*
X-254232Y-148685D01*
X-256058Y-143951D02*
X-255994Y-147667D01*
X2067Y-294025D02*
X37708Y-273136D01*
X111Y-295172D02*
X2067Y-294025D01*
X-4170Y-293110D02*
X111Y-295172D01*
X-30980Y-277669D02*
X-4215Y-293122D01*
X-57745Y-262216D02*
X-39789Y-272583D01*
X-221161Y-167815D02*
X-221150Y-167797D01*
X-217224Y-161319D01*
X-254921Y-208661D02*
X-242126Y-202264D01*
X-308071Y-178150D02*
X-254921Y-208661D01*
X-72835Y-313976D01*
X58071Y-322835D02*
X58661Y-307972D01*
X239173Y-218504D02*
X240354Y-203346D01*
X248031Y106693D02*
X255217D01*
X218097Y169280D02*
X218781Y168885D01*
X-308071Y-178150D02*
Y-96457D01*
X-307874Y-52658D02*
Y-10236D01*
X-313976Y-4134D02*
X-307874Y-10236D01*
X-313976Y-4134D02*
Y24606D01*
X-307087Y31496D01*
Y93504D01*
X-296358Y104232D01*
X-307087Y93504D02*
Y177165D01*
X-254921Y207530D01*
X-241240Y201772D01*
X-254921Y207530D02*
X-74803Y313344D01*
X-59547Y307480D01*
X-39665Y272146D02*
X-35393Y264665D01*
X-220866Y167618D02*
X-216929Y161024D01*
X-256004Y104232D02*
X-248327D01*
X295866Y107087D02*
X310039Y116142D01*
Y180118D01*
X238648Y220528D02*
X310039Y180118D01*
X56102Y325225D02*
X238810Y220821D01*
X238701Y220632D02*
X239764Y204724D01*
X214469Y161614D02*
X218504Y168405D01*
X0Y357283D02*
X56102Y325225D01*
X58071Y309055D01*
X33762Y265945D02*
X37795Y273130D01*
X-74807Y313349D02*
X0Y357283D01*
X214469Y-161614D02*
X218701Y-168405D01*
X33762Y-265945D02*
X37697Y-272638D01*
X-39789Y-272583D02*
X-30980Y-277669D01*
X248031Y-101969D02*
X255118Y-101969D01*
X-256058Y-104429D02*
X-248327Y-104429D01*
X-308071Y-96457D02*
X-296358Y-104429D01*
X-72835Y-313976D02*
X-59252Y-307283D01*
X-72835Y-313976D02*
X0Y-356299D01*
X58071Y-322835D01*
X239173Y-218504D01*
X309055Y-178150D01*
Y-111221D01*
X296063Y-102362D02*
X309055Y-111221D01*
X-39764Y-272539D02*
X-35393Y-264665D01*
X-256058Y-113045D02*
Y-104429D01*
X255330Y-145177D02*
Y-104258D01*
Y-147189D02*
Y-145177D01*
X253283Y148952D02*
X255217Y147835D01*
X219414Y168519D02*
X253283Y148952D01*
X-1772Y293838D02*
X20Y294854D01*
X-38648Y272932D02*
X-1772Y293838D01*
X-308071Y-96457D02*
X-307874Y-52658D01*
X255217Y147835D02*
X255330Y142986D01*
X251178Y-149766D02*
X255360Y-147219D01*
X164736Y200436D02*
X191587Y184934D01*
X137971Y215889D02*
X164736Y200436D01*
X111243Y231207D02*
X137971Y215889D01*
X84563Y246610D02*
X111243Y231207D01*
X57713Y262112D02*
X84563Y246610D01*
X-84534Y-246674D02*
X-57745Y-262216D01*
X224960Y-164917D02*
X251178Y-149766D01*
X-217861Y-169697D02*
X-191096Y-185150D01*
X-164331Y-200603D01*
X-137566Y-216055D01*
X-110801Y-231508D01*
X-84534Y-246674D01*
X-256058Y72388D02*
Y103293D01*
Y41482D02*
Y72388D01*
Y10577D02*
Y41482D01*
Y-20329D02*
Y10577D01*
Y-51234D02*
Y-20329D01*
Y-82140D02*
Y-51234D01*
Y-143951D02*
Y-113045D01*
X64371Y-257633D02*
X117901Y-226728D01*
X255330Y-73352D02*
Y-42447D01*
Y-11541D01*
Y19364D01*
Y50270D01*
Y81175D01*
Y112081D02*
Y142986D01*
X-92178Y242026D02*
X-65413Y257479D01*
X-118943Y226573D02*
X-92178Y242026D01*
X-145708Y211121D02*
X-118943Y226573D01*
X-172473Y195668D02*
X-145708Y211121D01*
X-199238Y180215D02*
X-172473Y195668D01*
X-252768Y149310D02*
X-226003Y164762D01*
X3609Y292893D02*
X30396Y277374D01*
X20Y294854D02*
X3609Y292893D01*
X-296358Y-44783D02*
X-289794Y-51348D01*
X169882Y7677D02*
X169980Y-8957D01*
X180610Y7677D02*
X180709Y-8957D01*
X191043Y7677D02*
X191142Y-8957D01*
X227658Y-17028D02*
X227756Y-33661D01*
X217224Y-17028D02*
X217323Y-33661D01*
X206496Y-17028D02*
X206594Y-33661D01*
X-256058Y-104429D02*
Y-82140D01*
X-226003Y164762D02*
X-220914Y167701D01*
X-65413Y257479D02*
X-39751Y272295D01*
X30396Y277374D02*
X37842Y273214D01*
X57713Y262112D01*
X255330Y-104258D02*
Y-73352D01*
X171431Y-195822D02*
X218755Y-168499D01*
X224960Y-164917D01*
X37868Y-272934D02*
X64371Y-257633D01*
X-221150Y-167797D02*
X-217861Y-169697D01*
X255330Y81175D02*
Y112081D01*
X117901Y-226728D02*
X144666Y-211275D01*
X-39751Y272295D02*
X-38648Y272932D01*
X-220914Y167701D02*
X-199238Y180215D01*
X-256058Y103293D02*
X-256058Y104232D01*
X37743Y-273007D02*
X37868Y-272934D01*
X144666Y-211275D02*
X171431Y-195822D01*
X191587Y184934D02*
X218097Y169280D01*
D22*
X-273342Y145682D02*
X-256046Y145177D01*
X-263025Y-163961D02*
X-254232Y-148685D01*
X-263090Y-164075D02*
X-263025Y-163961D01*
X2067Y-294025D02*
X10153Y-309462D01*
X255360Y-147219D02*
Y-147219D01*
X272752Y-145485D02*
X272752D01*
X255330Y-145177D02*
X272752Y-145485D01*
X253283Y148952D02*
X262205Y163386D01*
X-10449Y309166D02*
X-1772Y293838D01*
X-42Y-334371D02*
X31433Y-315693D01*
X-259954Y-184085D02*
X-257560Y-185429D01*
X-260149Y-183976D02*
X-259954Y-184085D01*
X-289807Y-167520D02*
X-260066Y-184285D01*
X-289807Y-167520D02*
Y-148221D01*
X-17262Y-324430D02*
X-42Y-334371D01*
X-246949Y-59153D02*
Y-49803D01*
Y-70473D02*
Y-59153D01*
Y-70473D02*
X-243820Y-73602D01*
X-226135D01*
X-222342Y-69809D01*
Y-49803D01*
X-243018Y-24600D02*
X-236707D01*
X-247146Y-20472D02*
X-243018Y-24600D01*
X-247146Y-20472D02*
Y13484D01*
X-226800Y-14694D02*
Y-13522D01*
X-236707Y-24600D02*
X-226800Y-14694D01*
X-289794Y-21977D02*
Y8928D01*
X289075Y-166840D02*
Y-130916D01*
X269922Y-177898D02*
X289075Y-166840D01*
X-158Y334583D02*
X17163Y324243D01*
X-29738Y317029D02*
X-158Y334583D01*
X-110055Y270677D02*
X-83290Y286129D01*
X-136799Y255218D02*
X-110474Y270417D01*
X-163585Y239771D02*
X-136820Y255224D01*
X-217094Y208860D02*
X-190768Y224059D01*
X-270644Y177960D02*
X-243880Y193413D01*
X-289934Y166539D02*
X-289794Y132550D01*
X-289934Y166539D02*
X-271063Y177701D01*
X289065Y144635D02*
Y168072D01*
X258449Y185280D02*
X289065Y168072D01*
X-126738Y-261261D02*
X-99973Y-276714D01*
X-73208Y-292167D01*
X-46443Y-307620D02*
X-44072Y-308989D01*
X-44026Y-308977D01*
X-19691Y-323027D01*
X-17262Y-324430D01*
X-289794Y101645D02*
Y132550D01*
Y39834D02*
Y70739D01*
Y8928D02*
Y39834D01*
Y-83788D02*
Y-52883D01*
Y-145599D02*
Y-114694D01*
Y-148207D02*
Y-145599D01*
X31532Y-315547D02*
X55901Y-301477D01*
X82666Y-286024D02*
X109431Y-270572D01*
X111860Y-269169D01*
X111860Y-269169D02*
X136196Y-255119D01*
X138455Y-253815D01*
X138491Y-253680D01*
X162827Y-239630D01*
X165256Y-238228D01*
X189592Y-224177D01*
X191850Y-222873D01*
X191985Y-222909D02*
X216491Y-208761D01*
X218750Y-207457D01*
X243459Y-193413D02*
X245718Y-192109D01*
X245788Y-191846D01*
X111860Y-269169D02*
X111860Y-269169D01*
X191850Y-222873D02*
X191985Y-222909D01*
X191985D01*
X218750Y-207457D02*
X219013Y-207527D01*
X245788Y-191846D02*
X269939Y-177902D01*
X289065Y-130710D02*
Y-102609D01*
Y21013D02*
Y51918D01*
Y82824D01*
Y-71704D02*
Y-40798D01*
Y-9893D01*
Y21013D01*
Y113729D02*
Y144635D01*
X17163Y324243D02*
X19421Y322939D01*
X233791Y199521D02*
X258277Y185385D01*
X43817Y308855D02*
X46076Y307551D01*
X19421Y322939D02*
X43817Y308855D01*
X231533Y200825D02*
X231533D01*
X204683Y216327D02*
X206941Y215023D01*
X180176Y230476D02*
X204683Y216327D01*
X177918Y231780D02*
X180176Y230476D01*
X204683Y216327D02*
X204683D01*
X177783Y231744D02*
X177918Y231780D01*
X153447Y245794D02*
X177783Y231744D01*
X151189Y247098D02*
X153447Y245794D01*
X151189Y247098D02*
X151189Y247098D01*
X126768Y261198D02*
X151189Y247098D01*
X124509Y262502D02*
X126768Y261198D01*
X99918Y276700D02*
X124509Y262502D01*
X231533Y200825D02*
X233791Y199521D01*
X97524Y277968D02*
X97659Y278004D01*
X73069Y292087D02*
X97524Y277968D01*
X97659Y278004D02*
X99918Y276700D01*
X70811Y293391D02*
X73069Y292087D01*
X-217861Y-169697D02*
X-217861D01*
X-289794Y-51348D02*
Y-21977D01*
X-251378Y-54724D02*
X-246949Y-59153D01*
X-251378Y-54724D02*
Y-32283D01*
X-247146Y-28051D02*
Y-20472D01*
X-251378Y-32283D02*
X-249311Y-30217D01*
X-247146Y-28051D01*
X-226800Y6243D02*
Y8001D01*
X-296457Y-96653D02*
X-289892D01*
X-289794Y-114694D02*
Y-83788D01*
X-235728Y-206004D02*
X-232393Y-200262D01*
X-260066Y-184285D02*
X-232393Y-200262D01*
X-126738Y-261261D01*
X-66535Y-303346D02*
X-63461Y-297795D01*
X-73208Y-292167D02*
X-63461Y-297795D01*
X-46443Y-307620D01*
X219013Y-207527D02*
X229954Y-201211D01*
X243459Y-193413D01*
X289065Y-94980D02*
X296161D01*
X289065Y-102609D02*
Y-94980D01*
Y-71704D01*
Y99508D02*
X295965D01*
X289065Y82824D02*
Y99508D01*
Y113729D01*
X229678Y201896D02*
X233268Y208465D01*
X206941Y215023D02*
X229678Y201896D01*
X231533Y200825D01*
X61625Y298694D02*
X65158Y305315D01*
X46219Y307589D02*
X61625Y298694D01*
X70811Y293391D01*
X-66142Y303642D02*
X-62862Y297905D01*
X-83269Y286124D02*
X-62862Y297905D01*
X-56504Y301576D01*
X-29738Y317029D01*
X-234350Y205906D02*
X-231515Y200552D01*
X-243880Y193413D02*
X-231515Y200552D01*
X-217115Y208866D01*
X-296358Y96457D02*
X-289794D01*
Y70739D02*
Y96457D01*
Y101645D01*
X229954Y-201211D02*
X233760Y-207283D01*
X37708Y-273136D02*
X37743Y-273007D01*
X55901Y-301477D02*
X61576Y-298201D01*
X65113Y-304042D01*
X61576Y-298201D02*
X82666Y-286024D01*
X-289794Y-52883D02*
Y-51348D01*
X-190350Y224318D02*
X-163585Y239771D01*
X-236695Y17895D02*
X-226800Y8001D01*
X-247146Y13484D02*
X-242735Y17895D01*
X-236695D01*
D23*
X-263025Y-163961D02*
Y-160114D01*
Y-164009D02*
Y-163961D01*
X-10138Y-304686D02*
X476Y-310814D01*
X-4215Y-293122D02*
X-4170Y-293110D01*
X-13732Y-295672D02*
X-4215Y-293122D01*
X262205Y158563D02*
Y163386D01*
X-126673Y-44291D02*
Y-39469D01*
X-132563Y-33579D02*
X-126673Y-39469D01*
X-142800Y-33579D02*
X-132563D01*
X37598Y37008D02*
X146181D01*
X8858Y8268D02*
X37598Y37008D01*
X29239Y-316980D02*
X31498Y-315676D01*
X-124354Y-46610D02*
X-95331D01*
X-126673Y-44291D02*
X-124354Y-46610D01*
X-95331D02*
X-92134Y-43413D01*
X-260617Y-182229D02*
X-260149Y-183976D01*
X-286430Y33861D02*
X-282316D01*
X-150394Y42913D02*
X-142717D01*
X-157480Y51870D02*
Y53642D01*
X-161811Y47539D02*
X-157480Y51870D01*
Y47047D02*
X-155315Y49213D01*
X-157480Y42913D02*
Y47047D01*
X-155315Y49213D02*
X-152362D01*
X-150394Y51181D01*
X-109153Y26870D02*
Y39347D01*
X-99364Y26916D02*
Y39400D01*
X-213400Y-8450D02*
Y-843D01*
X-286430Y2956D02*
X-282316D01*
X287560Y-42303D02*
X289065Y-40798D01*
X12567Y323012D02*
X17163Y324243D01*
X-56525Y301582D02*
X-54469Y301031D01*
X-48386Y290495D01*
X-60015Y295683D02*
X-57958Y292121D01*
X-60015Y295683D02*
X-58820Y300144D01*
X-33250Y311135D02*
X-31275Y307715D01*
X-31193Y307573D01*
X-29738Y317029D02*
X-27704Y316484D01*
X-86780Y280230D02*
X-84805Y276810D01*
X-84723Y276668D01*
X-83269Y286124D02*
X-81234Y285578D01*
X-136799Y255218D02*
X-134764Y254673D01*
X-140310Y249324D02*
X-138335Y245904D01*
X-138253Y245762D01*
X-167075Y233872D02*
X-165100Y230451D01*
X-165018Y230310D01*
X-217094Y208860D02*
X-215059Y208315D01*
X-217115Y208866D02*
X-217094Y208860D01*
X-220605Y202966D02*
X-218630Y199546D01*
X-218548Y199404D01*
X-247370Y187513D02*
X-245395Y184093D01*
X-245313Y183951D01*
X-270644Y177960D02*
X-268589Y177409D01*
X-262505Y166873D01*
X-274134Y172061D02*
X-272078Y168499D01*
X-274134Y172061D02*
X-272939Y176522D01*
X-243880Y193413D02*
X-241824Y192862D01*
X-235740Y182325D01*
X-247370Y187513D02*
X-246174Y191974D01*
X-215059Y208315D02*
X-208975Y197778D01*
X-220605Y202966D02*
X-219409Y207427D01*
X-190350Y224318D02*
X-188294Y223767D01*
X-182210Y213231D01*
X-193840Y218419D02*
X-191783Y214857D01*
X-193840Y218419D02*
X-192644Y222880D01*
X-163585Y239771D02*
X-161529Y239220D01*
X-155446Y228684D01*
X-134764Y254673D02*
X-128681Y244136D01*
X-140310Y249324D02*
X-139114Y253785D01*
X-110055Y270677D02*
X-107999Y270126D01*
X-101916Y259589D01*
X-113545Y264777D02*
X-111488Y261215D01*
X-113545Y264777D02*
X-112349Y269238D01*
X-81234Y285578D02*
X-75151Y275042D01*
X-86780Y280230D02*
X-85584Y284691D01*
X-27704Y316484D02*
X-21621Y305947D01*
X-33250Y311135D02*
X-32054Y315597D01*
X27183Y-316429D02*
X29239Y-316980D01*
X285701Y-127542D02*
X288967Y-130808D01*
X-127265Y-259295D02*
X-126738Y-261261D01*
X-100500Y-274747D02*
X-99973Y-276714D01*
X-73735Y-290200D02*
X-73208Y-292167D01*
X-46970Y-305653D02*
X-46443Y-307620D01*
X-20205Y-321106D02*
X-19691Y-323027D01*
X-44026Y-308977D02*
X-39565Y-307782D01*
X-260617Y-182229D02*
X-254534Y-171692D01*
X-253212Y-184357D02*
X-251155Y-180795D01*
X-257673Y-185553D02*
X-253212Y-184357D01*
X-233852Y-197681D02*
X-233301Y-199737D01*
X-233852Y-197681D02*
X-227768Y-187145D01*
X-226447Y-199810D02*
X-224390Y-196248D01*
X-230908Y-201005D02*
X-226447Y-199810D01*
X-207087Y-213134D02*
X-206536Y-215190D01*
X-207087Y-213134D02*
X-201004Y-202598D01*
X-199682Y-215263D02*
X-197625Y-211701D01*
X-204143Y-216458D02*
X-199682Y-215263D01*
X-180322Y-228587D02*
X-179771Y-230643D01*
X-180322Y-228587D02*
X-174239Y-218050D01*
X-172917Y-230715D02*
X-170860Y-227153D01*
X-177378Y-231911D02*
X-172917Y-230715D01*
X-153557Y-244040D02*
X-153006Y-246096D01*
X-153557Y-244040D02*
X-147474Y-233503D01*
X-146152Y-246168D02*
X-144095Y-242606D01*
X-150613Y-247364D02*
X-146152Y-246168D01*
X-127265Y-259295D02*
X-121182Y-248758D01*
X-119860Y-261423D02*
X-117804Y-257861D01*
X-124321Y-262619D02*
X-119860Y-261423D01*
X-100500Y-274747D02*
X-94417Y-264211D01*
X-93095Y-276876D02*
X-91039Y-273314D01*
X-97556Y-278071D02*
X-93095Y-276876D01*
X-73735Y-290200D02*
X-67652Y-279664D01*
X-66330Y-292329D02*
X-64274Y-288767D01*
X-70792Y-293524D02*
X-66330Y-292329D01*
X-46970Y-305653D02*
X-40887Y-295116D01*
X-39565Y-307782D02*
X-37509Y-304220D01*
X-20205Y-321106D02*
X-14122Y-310569D01*
X-12800Y-323234D02*
X-10744Y-319672D01*
X-17262Y-324430D02*
X-12800Y-323234D01*
X-289794Y132550D02*
X-288289Y134055D01*
X-276122D01*
X-286430Y126578D02*
X-282316D01*
X-289695Y129844D02*
X-286430Y126578D01*
X-289794Y101645D02*
X-288289Y103150D01*
X-276122D01*
X-286430Y95672D02*
X-282316D01*
X-289794Y70739D02*
X-288289Y72244D01*
X-276122D01*
X-286430Y64767D02*
X-282316D01*
X-289695Y68033D02*
X-286430Y64767D01*
X-289794Y39834D02*
X-288289Y41339D01*
X-276122D01*
X-289695Y37127D02*
X-286430Y33861D01*
X-289794Y8928D02*
X-288289Y10433D01*
X-276122D01*
X-289695Y6222D02*
X-286430Y2956D01*
X-289794Y-21977D02*
X-288289Y-20472D01*
X-276122D01*
X-289695Y-24684D02*
X-286430Y-27950D01*
X-289794Y-52883D02*
X-288289Y-51378D01*
X-276122D01*
X-286430Y-58855D02*
X-282316D01*
X-289695Y-55589D02*
X-286430Y-58855D01*
X-289794Y-83788D02*
X-288289Y-82284D01*
X-276122D01*
X-286430Y-89761D02*
X-282316D01*
X-289695Y-86495D02*
X-286430Y-89761D01*
X-289794Y-114694D02*
X-288289Y-113189D01*
X-276122D01*
X-286430Y-120666D02*
X-282316D01*
X-289695Y-117400D02*
X-286430Y-120666D01*
X-289794Y-145599D02*
X-288289Y-144095D01*
X-276122D01*
X-286430Y-151572D02*
X-282316D01*
X-289695Y-148306D02*
X-286430Y-151572D01*
X53845Y-300926D02*
X55901Y-301477D01*
X80610Y-285473D02*
X82666Y-286024D01*
X138491Y-253680D02*
X139686Y-249219D01*
X160905Y-239115D02*
X162827Y-239630D01*
X187670Y-223662D02*
X189592Y-224177D01*
X245788Y-191846D02*
X246949Y-187514D01*
X21100Y-305892D02*
X27183Y-316429D01*
X30672Y-307518D02*
X32729Y-311080D01*
X31534Y-315541D02*
X32729Y-311080D01*
X47762Y-290390D02*
X53845Y-300926D01*
X58196Y-300039D02*
X59391Y-295578D01*
X74527Y-274937D02*
X80610Y-285473D01*
X84100Y-276563D02*
X86156Y-280125D01*
X84961Y-284586D02*
X86156Y-280125D01*
X107375Y-270021D02*
X109431Y-270572D01*
X101292Y-259484D02*
X107375Y-270021D01*
X110865Y-261110D02*
X112921Y-264672D01*
X111726Y-269133D02*
X112921Y-264672D01*
X134140Y-254568D02*
X136196Y-255119D01*
X128057Y-244031D02*
X134140Y-254568D01*
X137630Y-245657D02*
X139686Y-249219D01*
X154822Y-228579D02*
X160905Y-239115D01*
X164395Y-230205D02*
X166451Y-233767D01*
X165256Y-238228D02*
X166451Y-233767D01*
X181587Y-213126D02*
X187670Y-223662D01*
X191159Y-214752D02*
X193216Y-218314D01*
X192021Y-222775D02*
X193216Y-218314D01*
X214435Y-208210D02*
X216491Y-208761D01*
X208352Y-197673D02*
X214435Y-208210D01*
X217924Y-199299D02*
X219981Y-202861D01*
X218786Y-207322D02*
X219981Y-202861D01*
X241403Y-192862D02*
X243459Y-193413D01*
X235320Y-182326D02*
X241403Y-192862D01*
X244893Y-183952D02*
X246949Y-187514D01*
X267883Y-177351D02*
X269939Y-177902D01*
X261800Y-166815D02*
X267883Y-177351D01*
X271373Y-168441D02*
X273429Y-172003D01*
X272234Y-176464D02*
X273429Y-172003D01*
X275394Y-135020D02*
X287560D01*
X281588Y-127542D02*
X285701D01*
X287560Y-104114D02*
X289065Y-102609D01*
X275394Y-104114D02*
X287560D01*
X281588Y-96637D02*
X285701D01*
X288967Y-99903D01*
X287560Y-73209D02*
X289065Y-71704D01*
X275394Y-73209D02*
X287560D01*
X281588Y-65732D02*
X285701D01*
X288967Y-68997D01*
X275394Y-42303D02*
X287560D01*
X281588Y-34826D02*
X285701D01*
X288967Y-38092D01*
X287560Y-11398D02*
X289065Y-9893D01*
X275394Y-11398D02*
X287560D01*
X281588Y-3920D02*
X285701D01*
X288967Y-7186D01*
X287560Y19508D02*
X289065Y21013D01*
X275394Y19508D02*
X287560D01*
X281588Y26985D02*
X285701D01*
X288967Y23719D01*
X287560Y50413D02*
X289065Y51918D01*
X275394Y50413D02*
X287560D01*
X281588Y57891D02*
X285701D01*
X288967Y54625D01*
X287560Y81319D02*
X289065Y82824D01*
X275394Y81319D02*
X287560D01*
X281588Y88796D02*
X285701D01*
X288967Y85530D01*
X287560Y112224D02*
X289065Y113729D01*
X275394Y112224D02*
X287560D01*
X281588Y119702D02*
X285701D01*
X288967Y116436D01*
X287560Y143130D02*
X289065Y144635D01*
X275394Y143130D02*
X287560D01*
X281588Y150607D02*
X285701D01*
X288967Y147341D01*
X258449Y185280D02*
X260707Y183976D01*
X19421Y322939D02*
X19972Y320884D01*
X253853Y184048D02*
X258315Y185244D01*
X251797Y180486D02*
X253853Y184048D01*
X255175Y171383D02*
X261258Y181920D01*
X260707Y183976D02*
X261258Y181920D01*
X46219Y307589D02*
X46770Y305533D01*
X39365Y307661D02*
X43817Y308855D01*
X13889Y310347D02*
X19972Y320884D01*
X200087Y215096D02*
X204683Y216327D01*
X173322Y230548D02*
X177783Y231744D01*
X146593Y245867D02*
X151189Y247098D01*
X224881Y196032D02*
X226937Y199594D01*
X228259Y186929D02*
X234342Y197465D01*
X233791Y199521D02*
X234342Y197465D01*
X198031Y211534D02*
X200087Y215096D01*
X201409Y202431D02*
X207492Y212967D01*
X206941Y215023D02*
X207492Y212967D01*
X171266Y226987D02*
X173322Y230548D01*
X174644Y217883D02*
X180727Y228420D01*
X180176Y230476D02*
X180727Y228420D01*
X144537Y242305D02*
X146593Y245867D01*
X147915Y233202D02*
X153998Y243738D01*
X153447Y245794D02*
X153998Y243738D01*
X117857Y257708D02*
X119913Y261270D01*
X124509Y262502D01*
X121235Y248605D02*
X127319Y259142D01*
X126768Y261198D02*
X127319Y259142D01*
X10511Y319450D02*
X12567Y323012D01*
X93063Y276772D02*
X97524Y277968D01*
X91007Y273210D02*
X93063Y276772D01*
X94385Y264107D02*
X100468Y274644D01*
X99918Y276700D02*
X100468Y274644D01*
X64158Y288597D02*
X66215Y292159D01*
X70811Y293391D01*
X67537Y279494D02*
X73620Y290031D01*
X73069Y292087D02*
X73620Y290031D01*
X40687Y294996D02*
X46770Y305533D01*
X37308Y304099D02*
X39365Y307661D01*
X-263025Y-136984D02*
X-256058Y-143951D01*
X-40497Y-280219D02*
X-30980Y-277669D01*
X-67261Y-264766D02*
X-57745Y-262216D01*
X5525Y-309462D02*
X10153D01*
X476Y-310814D02*
X5525Y-309462D01*
X-252768Y149310D02*
X-250218Y158827D01*
X-269035Y-156859D02*
Y-144095D01*
X-264621Y-158518D02*
X-263025Y-160114D01*
X-269035Y-156859D02*
X-267377Y-158518D01*
X-264621D01*
X-263025Y-44267D02*
Y-36492D01*
X-273342Y145682D02*
X-270249Y147262D01*
X-10449Y309166D02*
X-6533Y307014D01*
X201104Y187484D02*
X203879Y185882D01*
X43156Y278447D02*
X47115Y276162D01*
X174253Y202986D02*
X177114Y201334D01*
X96855Y247558D02*
X100814Y245273D01*
X117504Y242576D02*
X117692Y242468D01*
X150434Y216738D02*
X154222Y214551D01*
X133317Y233447D02*
X144354Y227074D01*
X123705Y232056D02*
X127493Y229869D01*
X-64109Y-273526D02*
X-63668Y-273781D01*
X-43377Y-278556D02*
X-40497Y-280219D01*
X-47230Y-276331D02*
X-43377Y-278556D01*
X-70142Y-263103D02*
X-67261Y-264766D01*
X-73995Y-260878D02*
X-70142Y-263103D01*
X269125Y-147463D02*
X272752Y-145485D01*
X251829Y-149940D02*
X251928Y-149569D01*
X249378Y-159086D02*
X251829Y-149940D01*
X246109Y-160974D02*
X249378Y-159086D01*
X219414Y168519D02*
X228020Y171939D01*
X230727Y170376D02*
X234753Y168051D01*
X268307Y143130D02*
Y155709D01*
X266831Y157185D02*
X268307Y155709D01*
X263583Y157185D02*
X266831D01*
X262205Y158563D02*
X263583Y157185D01*
X-250990Y-165555D02*
X-239935Y-171937D01*
X-236292Y-168944D02*
X-234112Y-168359D01*
X-239935Y-171937D02*
X-237670Y-171330D01*
X-236292Y-168944D01*
X-224225Y-181008D02*
X-213170Y-187390D01*
X-207347Y-183812D02*
X-200613Y-187700D01*
X-191096Y-185150D01*
X-209527Y-184397D02*
X-207347Y-183812D01*
X-213170Y-187390D02*
X-210905Y-186783D01*
X-209527Y-184397D01*
X-197460Y-196460D02*
X-186405Y-202843D01*
X-173848Y-203153D02*
X-164331Y-200603D01*
X-182762Y-199849D02*
X-180582Y-199265D01*
X-186405Y-202843D02*
X-184140Y-202236D01*
X-182762Y-199849D01*
X-170695Y-211913D02*
X-159641Y-218296D01*
X-147083Y-218605D02*
X-137566Y-216055D01*
X-155997Y-215302D02*
X-153817Y-214718D01*
X-159641Y-218296D02*
X-157375Y-217689D01*
X-155997Y-215302D01*
X-143930Y-227366D02*
X-132876Y-233748D01*
X-120318Y-234058D02*
X-110801Y-231508D01*
X-129233Y-230755D02*
X-127052Y-230170D01*
X-132876Y-233748D02*
X-130610Y-233141D01*
X-129233Y-230755D01*
X-94026Y-249313D02*
X-84510Y-246763D01*
X-102941Y-246010D02*
X-100760Y-245426D01*
X-106584Y-249003D02*
X-104319Y-248396D01*
X-102941Y-246010D01*
X-76176Y-261462D02*
X-73995Y-260878D01*
X-79819Y-264456D02*
X-77554Y-263849D01*
X-76176Y-261462D01*
X-49411Y-276915D02*
X-47230Y-276331D01*
X-53054Y-279909D02*
X-50789Y-279302D01*
X-49411Y-276915D01*
X-20466Y-291784D02*
X-13732Y-295672D01*
X-22646Y-292368D02*
X-20466Y-291784D01*
X-26289Y-295362D02*
X-24024Y-294755D01*
X-22646Y-292368D01*
X-269035Y121290D02*
Y134055D01*
X-263025Y110260D02*
Y118036D01*
X-264621Y119632D02*
X-263025Y118036D01*
X-269035Y121290D02*
X-267377Y119632D01*
X-264621D01*
X-269035Y90385D02*
Y103150D01*
X-263025Y79355D02*
Y87130D01*
Y79355D02*
X-256058Y72388D01*
X-264621Y88727D02*
X-263025Y87130D01*
X-269035Y90385D02*
X-267377Y88727D01*
X-264621D01*
X-269035Y59479D02*
Y72244D01*
X-263025Y48449D02*
Y56225D01*
Y48449D02*
X-256058Y41482D01*
X-264621Y57821D02*
X-263025Y56225D01*
X-269035Y59479D02*
X-267377Y57821D01*
X-264621D01*
X-269035Y28574D02*
Y41339D01*
X-263025Y17544D02*
Y25319D01*
Y17544D02*
X-256058Y10577D01*
X-264621Y26915D02*
X-263025Y25319D01*
X-269035Y28574D02*
X-267377Y26915D01*
X-264621D01*
X-269035Y-2332D02*
Y10433D01*
X-263025Y-13362D02*
Y-5586D01*
Y-13362D02*
X-256058Y-20329D01*
X-264621Y-3990D02*
X-263025Y-5586D01*
X-269035Y-2332D02*
X-267377Y-3990D01*
X-264621D01*
X-269035Y-33237D02*
Y-20472D01*
X-263025Y-44267D02*
X-256058Y-51234D01*
X-264621Y-34896D02*
X-263025Y-36492D01*
X-269035Y-33237D02*
X-267377Y-34896D01*
X-264621D01*
X-269035Y-64143D02*
Y-51378D01*
X-263025Y-75173D02*
X-256058Y-82140D01*
X-264621Y-65801D02*
X-263025Y-67397D01*
X-269035Y-64143D02*
X-267377Y-65801D01*
X-264621D01*
X-269035Y-95048D02*
Y-82284D01*
X-263025Y-106078D02*
X-256058Y-113045D01*
X-264621Y-96707D02*
X-263025Y-98303D01*
X-269035Y-95048D02*
X-267377Y-96707D01*
X-264621D01*
X-269035Y-125954D02*
Y-113189D01*
X-263025Y-136984D02*
Y-129208D01*
X-264621Y-127612D02*
X-263025Y-129208D01*
X-269035Y-125954D02*
X-267377Y-127612D01*
X-264621D01*
X17557Y-299755D02*
X28611Y-293372D01*
X35158Y-282652D02*
X37708Y-273136D01*
X27840Y-288721D02*
X28425Y-286540D01*
X28611Y-293372D02*
X29218Y-291107D01*
X27840Y-288721D02*
X29218Y-291107D01*
X44219Y-284252D02*
X55273Y-277870D01*
X61821Y-267150D02*
X64371Y-257633D01*
X54502Y-273218D02*
X55087Y-271038D01*
X55273Y-277870D02*
X55880Y-275605D01*
X54502Y-273218D02*
X55880Y-275605D01*
X70984Y-268800D02*
X82038Y-262417D01*
X88586Y-251697D02*
X91136Y-242180D01*
X81267Y-257765D02*
X81852Y-255585D01*
X82038Y-262417D02*
X82645Y-260152D01*
X81267Y-257765D02*
X82645Y-260152D01*
X97749Y-253347D02*
X108803Y-246964D01*
X115350Y-236244D02*
X117901Y-226728D01*
X108032Y-242313D02*
X108617Y-240132D01*
X108803Y-246964D02*
X109410Y-244699D01*
X108032Y-242313D02*
X109410Y-244699D01*
X124514Y-237894D02*
X135568Y-231512D01*
X142115Y-220792D02*
X144666Y-211275D01*
X134797Y-226860D02*
X135382Y-224679D01*
X135568Y-231512D02*
X136175Y-229246D01*
X134797Y-226860D02*
X136175Y-229246D01*
X151279Y-222441D02*
X162333Y-216059D01*
X168880Y-205339D02*
X171431Y-195822D01*
X161562Y-211407D02*
X162147Y-209227D01*
X162333Y-216059D02*
X162940Y-213794D01*
X161562Y-211407D02*
X162940Y-213794D01*
X178043Y-206989D02*
X189098Y-200606D01*
X188911Y-193774D02*
X195645Y-189886D01*
X198195Y-180369D01*
X188327Y-195954D02*
X188911Y-193774D01*
X189098Y-200606D02*
X189705Y-198341D01*
X188327Y-195954D02*
X189705Y-198341D01*
X204808Y-191536D02*
X215863Y-185153D01*
X222410Y-174433D02*
X224960Y-164917D01*
X215092Y-180501D02*
X215676Y-178321D01*
X215863Y-185153D02*
X216470Y-182888D01*
X215092Y-180501D02*
X216470Y-182888D01*
X231777Y-176189D02*
X242831Y-169806D01*
X242060Y-165154D02*
X242645Y-162974D01*
X242831Y-169806D02*
X243438Y-167541D01*
X242060Y-165154D02*
X243438Y-167541D01*
X258257Y-160678D02*
X269311Y-154295D01*
X268540Y-149643D02*
X269125Y-147463D01*
X269311Y-154295D02*
X269918Y-152030D01*
X268540Y-149643D02*
X269918Y-152030D01*
X268307Y-135020D02*
Y-122255D01*
X262297Y-119000D02*
Y-111225D01*
X255330Y-104258D02*
X262297Y-111225D01*
Y-119000D02*
X263893Y-120597D01*
X266649D02*
X268307Y-122255D01*
X263893Y-120597D02*
X266649D01*
X268307Y-104114D02*
Y-91349D01*
X262297Y-88095D02*
Y-80319D01*
X255330Y-73352D02*
X262297Y-80319D01*
Y-88095D02*
X263893Y-89691D01*
X266649D02*
X268307Y-91349D01*
X263893Y-89691D02*
X266649D01*
X268307Y-73209D02*
Y-60444D01*
X262297Y-57189D02*
Y-49414D01*
X255330Y-42447D02*
X262297Y-49414D01*
Y-57189D02*
X263893Y-58785D01*
X266649D02*
X268307Y-60444D01*
X263893Y-58785D02*
X266649D01*
X268307Y-42303D02*
Y-29538D01*
X262297Y-26284D02*
Y-18508D01*
X255330Y-11541D02*
X262297Y-18508D01*
Y-26284D02*
X263893Y-27880D01*
X266649D02*
X268307Y-29538D01*
X263893Y-27880D02*
X266649D01*
X268307Y-11398D02*
Y1367D01*
X262297Y4622D02*
Y12397D01*
X255330Y19364D02*
X262297Y12397D01*
Y4622D02*
X263893Y3025D01*
X266649D02*
X268307Y1367D01*
X263893Y3025D02*
X266649D01*
X268307Y19508D02*
Y32273D01*
X262297Y35527D02*
Y43303D01*
X255330Y50270D02*
X262297Y43303D01*
Y35527D02*
X263893Y33931D01*
X266649D02*
X268307Y32273D01*
X263893Y33931D02*
X266649D01*
X268307Y50413D02*
Y63178D01*
X262297Y66433D02*
Y74208D01*
X255330Y81175D02*
X262297Y74208D01*
Y66433D02*
X263893Y64837D01*
X266649D02*
X268307Y63178D01*
X263893Y64837D02*
X266649D01*
X268307Y81319D02*
Y94084D01*
X255330Y112081D02*
X262297Y105114D01*
Y97338D02*
X263893Y95742D01*
X266649D02*
X268307Y94084D01*
X263893Y95742D02*
X266649D01*
X268307Y112224D02*
Y124989D01*
X262297Y128244D02*
Y136019D01*
X255330Y142986D02*
X262297Y136019D01*
Y128244D02*
X263893Y126647D01*
X266649D02*
X268307Y124989D01*
X263893Y126647D02*
X266649D01*
X-92178Y242026D02*
X-89628Y251543D01*
X-30158Y290903D02*
X-28780Y288517D01*
X-30158Y290903D02*
X-29551Y293169D01*
X-18496Y299551D01*
X-29364Y286336D02*
X-28780Y288517D01*
X-56923Y275451D02*
X-55545Y273064D01*
X-56923Y275451D02*
X-56316Y277716D01*
X-45261Y284098D01*
X-56129Y270884D02*
X-55545Y273064D01*
X-65413Y257479D02*
X-62863Y266996D01*
X-83688Y259998D02*
X-82310Y257611D01*
X-83688Y259998D02*
X-83081Y262263D01*
X-72026Y268646D01*
X-82894Y255431D02*
X-82310Y257611D01*
X-110453Y244545D02*
X-109075Y242159D01*
X-110453Y244545D02*
X-109846Y246810D01*
X-98791Y253193D01*
X-109659Y239978D02*
X-109075Y242159D01*
X-118943Y226573D02*
X-116393Y236090D01*
X-137218Y229093D02*
X-135840Y226706D01*
X-137218Y229093D02*
X-136611Y231358D01*
X-125556Y237740D01*
X-136424Y224525D02*
X-135840Y226706D01*
X-145708Y211121D02*
X-143158Y220638D01*
X-163983Y213640D02*
X-162605Y211253D01*
X-163983Y213640D02*
X-163376Y215905D01*
X-152321Y222287D01*
X-163189Y209073D02*
X-162605Y211253D01*
X-172473Y195668D02*
X-169923Y205185D01*
X-190748Y198187D02*
X-189370Y195800D01*
X-190748Y198187D02*
X-190141Y200452D01*
X-179086Y206835D01*
X-189954Y193620D02*
X-189370Y195800D01*
X-199238Y180215D02*
X-196688Y189732D01*
X-217512Y182734D02*
X-216135Y180348D01*
X-217512Y182734D02*
X-216906Y184999D01*
X-205851Y191382D01*
X-216719Y178167D02*
X-216135Y180348D01*
X-226003Y164762D02*
X-223453Y174279D01*
X-244278Y167281D02*
X-242899Y164895D01*
X-244278Y167281D02*
X-243671Y169546D01*
X-232616Y175929D01*
X-243484Y162714D02*
X-242899Y164895D01*
X-271042Y151829D02*
X-269665Y149442D01*
X-271042Y151829D02*
X-270436Y154094D01*
X-259381Y160476D01*
X-270249Y147262D02*
X-269665Y149442D01*
X191587Y184934D02*
X201104Y187484D01*
X236934Y168635D02*
X238312Y171022D01*
X240577Y171628D01*
X251632Y165246D01*
X234753Y168051D02*
X236934Y168635D01*
X210018Y184180D02*
X211396Y186567D01*
X213661Y187174D01*
X224716Y180791D01*
X207838Y183596D02*
X210018Y184180D01*
X183168Y199682D02*
X184546Y202069D01*
X186811Y202676D01*
X197865Y196293D01*
X180987Y199098D02*
X183168Y199682D01*
X164736Y200436D02*
X174253Y202986D01*
X156403Y215135D02*
X157781Y217522D01*
X160046Y218129D01*
X171100Y211746D01*
X154222Y214551D02*
X156403Y215135D01*
X137971Y215889D02*
X147488Y218439D01*
X129674Y230453D02*
X131052Y232840D01*
X133317Y233447D01*
X127493Y229869D02*
X129674Y230453D01*
X111243Y231207D02*
X120759Y233757D01*
X102994Y245857D02*
X104372Y248243D01*
X106637Y248850D01*
X100814Y245273D02*
X102994Y245857D01*
X84563Y246610D02*
X94080Y249160D01*
X-4352Y307599D02*
X-2974Y309985D01*
X-709Y310592D01*
X10346Y304210D01*
X-6533Y307014D02*
X-4352Y307599D01*
X76144Y261359D02*
X77522Y263745D01*
X79787Y264352D01*
X73963Y260775D02*
X76144Y261359D01*
X49295Y276746D02*
X50674Y279133D01*
X52939Y279740D01*
X47115Y276162D02*
X49295Y276746D01*
X20265Y291664D02*
X22445Y292248D01*
X26088Y295242D02*
X37143Y288859D01*
X23823Y294635D02*
X26088Y295242D01*
X22445Y292248D02*
X23823Y294635D01*
X-38648Y272932D02*
X-36098Y282449D01*
X3609Y292893D02*
X13531Y295551D01*
X57713Y262112D02*
X67230Y264662D01*
X30396Y277374D02*
X40381Y280050D01*
X-286430Y-27950D02*
X-282316D01*
X-263025Y-75173D02*
Y-67397D01*
X-92323Y26870D02*
X-85728D01*
X-116240Y24606D02*
Y26870D01*
Y24606D02*
X-109252Y17618D01*
Y9055D02*
Y17618D01*
X-165558Y47539D02*
X-161811D01*
X-165847D02*
Y53543D01*
X-150394Y51181D02*
Y53642D01*
X-92134Y-43413D02*
Y-30700D01*
X-250218Y158827D02*
X-246488Y160980D01*
X-243484Y162714D01*
X43156Y278447D02*
X43156Y278447D01*
X63908Y273406D02*
X63908D01*
X228020Y171939D02*
X230727Y170376D01*
X230727Y170376D01*
X262297Y97338D02*
Y105114D01*
X242645Y-162974D02*
X246109Y-160974D01*
X246109Y-160974D01*
X215676Y-178321D02*
X219233Y-176268D01*
X222410Y-174433D01*
X28425Y-286540D02*
X31925Y-284519D01*
X35158Y-282652D01*
X-37344Y-288979D02*
X-36903Y-289233D01*
X-26289Y-295362D01*
X-63668Y-273781D02*
X-63668Y-273781D01*
X-234112Y-168359D02*
X-230699Y-170330D01*
X-227378Y-172247D01*
X-263025Y-106078D02*
Y-98303D01*
Y110260D02*
X-256058Y103293D01*
X-227378Y-172247D02*
X-220470Y-170396D01*
X-217861Y-169697D01*
X162147Y-209227D02*
X168880Y-205339D01*
X-10579Y-304432D02*
X-10138Y-304686D01*
X-63668Y-273781D02*
X-53054Y-279909D01*
X226937Y199594D02*
X230070Y200433D01*
X231533Y200825D01*
X-289695Y98938D02*
X-286430Y95672D01*
X-223453Y174279D02*
X-219723Y176433D01*
X-36098Y282449D02*
X-32368Y284602D01*
X-29364Y286336D01*
X-196688Y189732D02*
X-189954Y193620D01*
X-219723Y176433D02*
X-216719Y178167D01*
X52939Y279740D02*
X63908Y273406D01*
X13531Y295551D02*
X16411Y293889D01*
X20265Y291664D01*
X203879Y185882D02*
X207838Y183596D01*
X177114Y201334D02*
X180987Y199098D01*
X40381Y280050D02*
X43156Y278447D01*
X63908Y273406D02*
X63993Y273357D01*
X-180582Y-199265D02*
X-173848Y-203153D01*
X-90874Y-258074D02*
X-90433Y-258328D01*
X-100760Y-245426D02*
X-96907Y-247651D01*
X-94026Y-249313D01*
X-90433Y-258328D02*
X-79819Y-264456D01*
X-153817Y-214718D02*
X-150404Y-216688D01*
X-147083Y-218605D01*
X-117639Y-242621D02*
X-117198Y-242875D01*
X-106584Y-249003D01*
X-127052Y-230170D02*
X-123639Y-232141D01*
X-120318Y-234058D01*
X58643Y-268984D02*
X61821Y-267150D01*
X55087Y-271038D02*
X58643Y-268984D01*
X108617Y-240132D02*
X112173Y-238079D01*
X115350Y-236244D01*
X135382Y-224679D02*
X138938Y-222626D01*
X142115Y-220792D01*
X81852Y-255585D02*
X85408Y-253532D01*
X88586Y-251697D01*
X67230Y264662D02*
X70056Y263031D01*
X150434Y216738D02*
X150434Y216738D01*
X96855Y247558D02*
X96855Y247558D01*
X117504Y242576D02*
X117504Y242576D01*
X-62863Y266996D02*
X-59133Y269149D01*
X-56129Y270884D01*
X90739Y258029D02*
X90842Y257970D01*
X147488Y218439D02*
X150434Y216738D01*
X94080Y249160D02*
X96855Y247558D01*
X120759Y233757D02*
X123705Y232056D01*
X144354Y227074D02*
X144372Y227064D01*
X70056Y263031D02*
X73963Y260775D01*
X106637Y248850D02*
X117504Y242576D01*
X79787Y264352D02*
X90739Y258029D01*
X255330Y-147189D02*
X255360Y-147219D01*
X57385Y-292103D02*
X59391Y-295578D01*
X57335Y-292016D02*
X57385Y-292103D01*
X-116393Y236090D02*
X-112663Y238244D01*
X-85898Y253696D02*
X-82894Y255431D01*
X-139428Y222791D02*
X-136424Y224525D01*
X-112663Y238244D02*
X-109659Y239978D01*
X-169923Y205185D02*
X-166193Y207338D01*
X-163189Y209073D01*
X-143158Y220638D02*
X-139428Y222791D01*
X-89628Y251543D02*
X-85898Y253696D01*
X-167075Y233872D02*
X-165879Y238333D01*
X-150394Y53642D02*
X-54823D01*
X-9449Y8268D01*
X8858D01*
D24*
X310039Y26575D02*
D03*
Y-26575D02*
D03*
D25*
X305118Y-9843D02*
D03*
Y9843D02*
D03*
X314961D02*
D03*
Y-9843D02*
D03*
Y0D02*
D03*
X-142800Y-33579D02*
D03*
X-132957Y-43421D02*
D03*
X-152643D02*
D03*
X142800Y-33579D02*
D03*
X152643Y-43421D02*
D03*
X132957D02*
D03*
X35819Y-30700D02*
D03*
X25976D02*
D03*
X16134D02*
D03*
X6291D02*
D03*
X-3551D02*
D03*
X-13394D02*
D03*
X-23236D02*
D03*
X-33079D02*
D03*
X-42921D02*
D03*
X-52764D02*
D03*
X-62606D02*
D03*
X-72449D02*
D03*
X-82291D02*
D03*
X-92134D02*
D03*
X-101976D02*
D03*
X-111819D02*
D03*
X-59994Y39400D02*
D03*
X-69836D02*
D03*
X-79679D02*
D03*
X-89521D02*
D03*
X-99364D02*
D03*
X-109206D02*
D03*
X24528D02*
D03*
X14685D02*
D03*
X4843D02*
D03*
X-5000D02*
D03*
X-14842D02*
D03*
X-24685D02*
D03*
D26*
X-239800Y-13046D02*
D03*
Y6246D02*
D03*
X330689Y54134D02*
D03*
Y71850D02*
D03*
Y-71850D02*
D03*
Y-54134D02*
D03*
X-228104Y-36200D02*
D03*
X-241096D02*
D03*
X156181Y37008D02*
D03*
X146181D02*
D03*
D27*
X320905Y49213D02*
D03*
Y76772D02*
D03*
Y-76772D02*
D03*
Y-49213D02*
D03*
D28*
X-296063Y5591D02*
D03*
Y-4409D02*
D03*
X-306063Y20591D02*
D03*
Y10591D02*
D03*
X-296063Y15591D02*
D03*
X-306063Y591D02*
D03*
D29*
X-331102Y-11929D02*
D03*
Y28071D02*
D03*
D30*
X-331496Y-52658D02*
D03*
X-319488Y-33366D02*
D03*
D31*
X-307874Y-52658D02*
D03*
D32*
X-100Y380800D02*
D03*
X329700Y190800D02*
D03*
X-328900Y190400D02*
D03*
Y-190300D02*
D03*
X-300Y-380800D02*
D03*
X330400Y-190600D02*
D03*
D33*
X-179232Y38681D02*
D03*
X-217224Y-161319D02*
D03*
X-242126Y-202264D02*
D03*
X-59547Y307480D02*
D03*
X-35393Y264665D02*
D03*
X-241240Y201772D02*
D03*
X-216929Y161024D02*
D03*
X-296358Y104232D02*
D03*
X-248327D02*
D03*
X248031Y106693D02*
D03*
X295866Y107087D02*
D03*
X239764Y204724D02*
D03*
X214469Y161614D02*
D03*
X58071Y309055D02*
D03*
X33762Y265945D02*
D03*
X240354Y-203346D02*
D03*
X214469Y-161614D02*
D03*
X58661Y-307972D02*
D03*
X33762Y-265945D02*
D03*
X-248327Y-104429D02*
D03*
X-296358D02*
D03*
X296063Y-102362D02*
D03*
X248031Y-101969D02*
D03*
X-59252Y-307283D02*
D03*
X-35393Y-264665D02*
D03*
X-135925Y-6594D02*
D03*
X213878Y16339D02*
D03*
X172244Y-52559D02*
D03*
X-121752Y-42126D02*
D03*
X-221063Y30512D02*
D03*
X-169783Y-37303D02*
D03*
X-10024Y296568D02*
D03*
X-20457Y314973D02*
D03*
X-6489Y281811D02*
D03*
X-142520Y43110D02*
D03*
X-213386Y-8465D02*
D03*
X-187500Y-30413D02*
D03*
X230709Y53347D02*
D03*
X-296358Y-44783D02*
D03*
X-208296Y12008D02*
D03*
X-165847Y47539D02*
D03*
X-227264Y25591D02*
D03*
X-85728Y26870D02*
D03*
X-109252Y9055D02*
D03*
X-165551Y-30315D02*
D03*
X0Y13780D02*
D03*
X-249311Y-30217D02*
D03*
X191142Y-8957D02*
D03*
X180709D02*
D03*
X169980D02*
D03*
X169882Y7677D02*
D03*
X180610D02*
D03*
X191043D02*
D03*
X227658Y-17028D02*
D03*
X217224D02*
D03*
X206496D02*
D03*
X206594Y-33661D02*
D03*
X217323D02*
D03*
X227756D02*
D03*
X-16689Y276011D02*
D03*
X-296457Y-96653D02*
D03*
X-296358Y96457D02*
D03*
X-234350Y205906D02*
D03*
X-66142Y303642D02*
D03*
X65158Y305315D02*
D03*
X233268Y208465D02*
D03*
X295965Y99508D02*
D03*
X296161Y-94980D02*
D03*
X-66535Y-303346D02*
D03*
X-235728Y-206004D02*
D03*
X233760Y-207283D02*
D03*
X65113Y-304042D02*
D03*
M02*
